<?xml version="1.0" encoding="UTF-8" standalone="no"?>
<!DOCTYPE svg PUBLIC "-//W3C//DTD SVG 1.1//EN" "http://www.w3.org/Graphics/SVG/1.1/DTD/svg11.dtd">
<svg version="1.1" xmlns="http://www.w3.org/2000/svg" xmlns:xlink="http://www.w3.org/1999/xlink" preserveAspectRatio="xMidYMid meet" viewBox="0 0 1500 1500" width="1500" height="1500"><defs><path d="M858.7 18.47L858.7 0L619.57 0L619.57 18.47C301.84 18.47 125.32 18.47 90.02 18.47C70.32 18.47 54.35 45.62 54.35 79.1C54.35 79.1 54.35 79.1 54.35 79.1C54.35 201.83 54.35 1183.64 54.35 1306.37C54.35 1339.85 70.32 1367 90.02 1367C219.63 1367 1256.46 1367 1386.07 1367C1405.77 1367 1421.74 1339.85 1421.74 1306.37C1421.74 1306.37 1421.74 1306.37 1421.74 1306.37C1421.74 1183.64 1421.74 201.83 1421.74 79.1C1421.74 45.62 1405.77 18.47 1386.07 18.47C1386.07 18.47 1386.07 18.47 1386.07 18.47C1386.07 18.47 1210.28 18.47 858.7 18.47Z" id="d16RLtbhLl"></path><path d="M1373.91 125.62C1373.91 125.62 1373.91 125.62 1373.91 125.62C1373.91 857.14 1373.91 1263.55 1373.91 1344.83C1373.91 1344.83 1373.91 1344.83 1373.91 1344.83C610.87 1344.83 186.96 1344.83 102.17 1344.83C102.17 1344.83 102.17 1344.83 102.17 1344.83C102.17 613.3 102.17 206.9 102.17 125.62C102.17 125.62 102.17 125.62 102.17 125.62C865.22 125.62 1289.13 125.62 1373.91 125.62Z" id="ehIzTFxEj"></path><path d="M736.96 48.03C729.75 48.03 723.91 57.95 723.91 70.2C723.91 82.44 729.75 92.36 736.96 92.36C744.16 92.36 750 82.44 750 70.2C750 57.95 744.16 48.03 736.96 48.03Z" id="c1g0YtkEPN"></path><path d="M1300.91 280.79L1240.62 280.79L1240.62 178.33L1300.91 178.33L1300.91 280.79ZM1243.24 276.33L1298.28 276.33L1298.28 182.79L1243.24 182.79L1243.24 276.33Z" id="d48rP7rw3g"></path><path d="M1333.33 1322.66C1333.33 1313.54 1333.33 1308.48 1333.33 1307.46C1333.33 1305.8 1332.54 1304.45 1331.56 1304.45C1331.56 1304.45 1331.56 1304.45 1331.56 1304.45C1327.3 1304.45 1293.26 1304.45 1289.01 1304.45C1288.03 1304.45 1287.23 1305.8 1287.23 1307.46C1287.23 1307.46 1287.23 1307.46 1287.23 1307.46C1287.23 1308.48 1287.23 1313.54 1287.23 1322.66L1260.64 1322.66C1260.64 1313.54 1260.64 1308.48 1260.64 1307.46C1260.64 1305.8 1259.84 1304.45 1258.87 1304.45C1258.87 1304.45 1258.87 1304.45 1258.87 1304.45C1254.61 1304.45 1220.57 1304.45 1216.31 1304.45C1215.33 1304.45 1214.54 1305.8 1214.54 1307.46C1214.54 1307.46 1214.54 1307.46 1214.54 1307.46C1214.54 1308.48 1214.54 1313.54 1214.54 1322.66L1187.94 1322.66C1187.94 1313.54 1187.94 1308.48 1187.94 1307.46C1187.94 1305.8 1187.15 1304.45 1186.17 1304.45C1186.17 1304.45 1186.17 1304.45 1186.17 1304.45C1181.91 1304.45 1147.87 1304.45 1143.62 1304.45C1142.64 1304.45 1141.84 1305.8 1141.84 1307.46C1141.84 1307.46 1141.84 1307.46 1141.84 1307.46C1141.84 1308.48 1141.84 1313.54 1141.84 1322.66L1115.25 1322.66C1115.25 1313.54 1115.25 1308.48 1115.25 1307.46C1115.25 1305.8 1114.45 1304.45 1113.48 1304.45C1113.48 1304.45 1113.48 1304.45 1113.48 1304.45C1109.22 1304.45 1075.18 1304.45 1070.92 1304.45C1069.94 1304.45 1069.15 1305.8 1069.15 1307.46C1069.15 1307.46 1069.15 1307.46 1069.15 1307.46C1069.15 1308.48 1069.15 1313.54 1069.15 1322.66L1042.55 1322.66C1042.55 1313.54 1042.55 1308.48 1042.55 1307.46C1042.55 1305.8 1041.76 1304.45 1040.78 1304.45C1040.78 1304.45 1040.78 1304.45 1040.78 1304.45C1036.52 1304.45 1002.48 1304.45 998.23 1304.45C997.25 1304.45 996.45 1305.8 996.45 1307.46C996.45 1307.46 996.45 1307.46 996.45 1307.46C996.45 1308.48 996.45 1313.54 996.45 1322.66L969.86 1322.66C969.86 1313.54 969.86 1308.48 969.86 1307.46C969.86 1305.8 969.06 1304.45 968.09 1304.45C968.09 1304.45 968.09 1304.45 968.09 1304.45C963.83 1304.45 929.79 1304.45 925.53 1304.45C924.55 1304.45 923.76 1305.8 923.76 1307.46C923.76 1307.46 923.76 1307.46 923.76 1307.46C923.76 1308.48 923.76 1313.54 923.76 1322.66L897.16 1322.66C897.16 1313.54 897.16 1308.48 897.16 1307.46C897.16 1305.8 896.37 1304.45 895.39 1304.45C895.39 1304.45 895.39 1304.45 895.39 1304.45C862.06 1304.45 595.39 1304.45 562.06 1304.45C561.08 1304.45 560.28 1305.8 560.28 1307.46C560.28 1307.46 560.28 1307.46 560.28 1307.46C560.28 1308.48 560.28 1313.54 560.28 1322.66L533.69 1322.66C533.69 1313.54 533.69 1308.48 533.69 1307.46C533.69 1305.8 532.89 1304.45 531.91 1304.45C531.91 1304.45 531.91 1304.45 531.91 1304.45C527.66 1304.45 493.62 1304.45 489.36 1304.45C488.38 1304.45 487.59 1305.8 487.59 1307.46C487.59 1307.46 487.59 1307.46 487.59 1307.46C487.59 1308.48 487.59 1313.54 487.59 1322.66L460.99 1322.66C460.99 1313.54 460.99 1308.48 460.99 1307.46C460.99 1305.8 460.2 1304.45 459.22 1304.45C459.22 1304.45 459.22 1304.45 459.22 1304.45C454.96 1304.45 420.92 1304.45 416.67 1304.45C415.69 1304.45 414.89 1305.8 414.89 1307.46C414.89 1307.46 414.89 1307.46 414.89 1307.46C414.89 1308.48 414.89 1313.54 414.89 1322.66L388.3 1322.66C388.3 1313.54 388.3 1308.48 388.3 1307.46C388.3 1305.8 387.5 1304.45 386.52 1304.45C386.52 1304.45 386.52 1304.45 386.52 1304.45C382.27 1304.45 348.23 1304.45 343.97 1304.45C342.99 1304.45 342.2 1305.8 342.2 1307.46C342.2 1307.46 342.2 1307.46 342.2 1307.46C342.2 1308.48 342.2 1313.54 342.2 1322.66L315.6 1322.66C315.6 1313.54 315.6 1308.48 315.6 1307.46C315.6 1305.8 314.81 1304.45 313.83 1304.45C313.83 1304.45 313.83 1304.45 313.83 1304.45C309.57 1304.45 275.53 1304.45 271.28 1304.45C270.3 1304.45 269.5 1305.8 269.5 1307.46C269.5 1307.46 269.5 1307.46 269.5 1307.46C269.5 1308.48 269.5 1313.54 269.5 1322.66L242.91 1322.66C242.91 1313.54 242.91 1308.48 242.91 1307.46C242.91 1305.8 242.11 1304.45 241.13 1304.45C241.13 1304.45 241.13 1304.45 241.13 1304.45C236.88 1304.45 202.84 1304.45 198.58 1304.45C197.6 1304.45 196.81 1305.8 196.81 1307.46C196.81 1307.46 196.81 1307.46 196.81 1307.46C196.81 1308.48 196.81 1313.54 196.81 1322.66L170.21 1322.66C170.21 1313.54 170.21 1308.48 170.21 1307.46C170.21 1305.8 169.42 1304.45 168.44 1304.45C168.44 1304.45 168.44 1304.45 168.44 1304.45C164.18 1304.45 130.14 1304.45 125.89 1304.45C124.91 1304.45 124.11 1305.8 124.11 1307.46C124.11 1307.46 124.11 1307.46 124.11 1307.46C124.11 1308.48 124.11 1313.54 124.11 1322.66C75.18 1322.66 47.99 1322.66 42.55 1322.66C19.05 1322.66 0 1355.04 0 1394.98C0 1398.25 0 1424.41 0 1427.68C0 1467.62 19.05 1500 42.55 1500C184.04 1500 1315.96 1500 1457.45 1500C1480.95 1500 1500 1467.62 1500 1427.68C1500 1424.41 1500 1398.25 1500 1394.98C1500 1355.04 1480.95 1322.66 1457.45 1322.66C1457.45 1322.66 1416.08 1322.66 1333.33 1322.66Z" id="c2vZ8O063"></path><path d="M1295.3 804.98L885.84 804.98L885.84 408.81L1295.3 408.81L1295.3 804.98ZM889.89 798.09L1291.24 798.09L1291.24 415.7L889.89 415.7L889.89 798.09Z" id="e5wcrKn1r"></path><path d="M545.3 884.22L180.43 884.22L180.43 498.38L545.3 498.38L545.3 884.22ZM184.49 877.33L541.24 877.33L541.24 505.27L184.49 505.27L184.49 877.33Z" id="c62CuJ8l2"></path><path d="M350.89 736.08C350.69 731.46 350.57 728.89 350.55 728.38C349.5 712.38 352.64 694.9 361.35 677.13C369.2 661.43 373.56 649.87 373.56 636.54C373.56 621.43 367.98 611.36 357 611.06C350.71 611.02 344.57 614.22 339.39 620.25C338.97 618.38 335.62 603.45 335.21 601.58C340.96 594.47 350.89 589.73 360.13 589.73C380.18 589.73 389.24 610.77 389.24 633.28C389.24 653.43 382.62 667.95 374.25 684.83C366.58 700.24 363.79 713.27 364.32 728.38C364.33 728.89 364.39 731.46 364.49 736.08L350.89 736.08ZM356.66 758.93C356.95 758.9 357.23 758.89 357.52 758.9C363.62 758.9 367.8 766.6 367.8 777.56C368.04 787.3 363.59 795.51 357.86 795.92C352.13 796.32 347.3 788.75 347.06 779.01C347.05 778.53 347.05 778.05 347.06 777.56C346.68 767.91 350.99 759.57 356.66 758.93Z" id="fABj9vR6A"></path><path d="M1078.6 649.96C1078.39 645.34 1078.27 642.77 1078.25 642.26C1077.2 626.26 1080.34 608.78 1089.06 591.01C1096.9 575.3 1101.26 563.75 1101.26 550.42C1101.26 535.31 1095.68 525.24 1084.7 524.94C1078.42 524.9 1072.28 528.1 1067.09 534.12C1066.67 532.26 1063.33 517.33 1062.91 515.46C1068.66 508.35 1078.6 503.61 1087.84 503.61C1107.88 503.61 1116.95 524.64 1116.95 547.16C1116.95 567.31 1110.32 581.82 1101.96 598.71C1094.29 614.11 1091.5 627.15 1092.02 642.26C1092.03 642.77 1092.09 645.34 1092.19 649.96L1078.6 649.96ZM1084.37 672.81C1084.65 672.78 1084.94 672.76 1085.22 672.77C1091.32 672.77 1095.51 680.47 1095.51 691.44C1095.74 701.17 1091.29 709.39 1085.56 709.79C1079.83 710.19 1075 702.63 1074.76 692.89C1074.75 692.41 1074.75 691.92 1074.76 691.44C1074.39 681.79 1078.69 673.45 1084.37 672.81Z" id="bC7Kf4CMj"></path><path d="M745.21 601.34C648.6 601.34 570.29 734.43 570.29 898.61C570.29 1062.79 648.6 1195.88 745.21 1195.88C841.81 1195.88 920.12 1062.79 920.12 898.61C920.12 734.43 841.81 601.34 745.21 601.34Z" id="dDqawVL3"></path><path d="M625.36 1289.61L642.32 1104.05L694.61 1120.14L677.65 1305.7L677.65 1305.7L625.36 1289.61Z" id="bs7Rw5MIW"></path><path d="M799.19 1152.31C799.19 1152.31 799.19 1152.31 799.19 1152.31C789.01 1247.84 783.36 1300.92 782.23 1311.53C782.23 1311.53 782.23 1311.53 782.23 1311.53C750.85 1301.88 733.42 1296.52 729.94 1295.44C729.94 1295.44 729.94 1295.44 729.94 1295.44C740.11 1199.91 745.77 1146.84 746.9 1136.22C746.9 1136.22 746.9 1136.22 746.9 1136.22C778.27 1145.88 795.7 1151.24 799.19 1152.31Z" id="b2VjMda1R"></path><path d="M777.06 1277.65C801.03 1285.87 818.99 1304.93 817.18 1320.2C815.36 1335.48 794.46 1341.2 770.48 1332.98C746.51 1324.75 728.55 1305.7 730.36 1290.42C732.18 1275.14 753.08 1269.42 777.06 1277.65Z" id="bhslbNTF5"></path><path d="M666.55 1277.54C690.79 1283 709.47 1299.95 708.27 1315.41C707.06 1330.86 686.43 1338.96 662.19 1333.5C637.94 1328.04 619.26 1311.09 620.47 1295.64C621.67 1280.19 642.3 1272.09 666.55 1277.54Z" id="c12DlIVVjn"></path><path d="M757.45 724.3C724.44 724.3 697.67 769.78 697.67 825.9C697.67 882.01 724.44 927.5 757.45 927.5C790.47 927.5 817.23 882.01 817.23 825.9C817.23 769.78 790.47 724.3 757.45 724.3Z" id="c4IMC15tCh"></path><path d="M782.02 755.61C771.02 755.61 762.1 770.77 762.1 789.48C762.1 808.18 771.02 823.34 782.02 823.34C793.03 823.34 801.95 808.18 801.95 789.48C801.95 770.77 793.03 755.61 782.02 755.61Z" id="a2BnQGJIQ5"></path><path d="M731.88 367C803.36 362.07 863.43 447.29 866.06 557.34C868.69 667.4 819.01 692.4 747.53 697.34C676.05 702.27 609.85 685.26 607.22 575.21C604.59 465.16 660.4 371.94 731.88 367Z" id="c1dDE0c8pu"></path><path d="M991.97 811.24C995.35 836.36 959.93 871.59 912.85 889.93C865.77 908.27 824.86 902.78 821.47 877.66C818.08 852.54 853.5 817.31 900.58 798.97C947.66 780.63 988.58 786.12 991.97 811.24Z" id="eyNf6v6cb"></path><path d="M648.61 908.28C652 933.4 616.58 968.63 569.5 986.97C522.42 1005.32 481.5 999.82 478.12 974.7C474.73 949.58 510.15 914.35 557.23 896.01C604.31 877.67 645.22 883.17 648.61 908.28Z" id="b1alNeqf6r"></path><path d="M729.28 1094.48C750.94 1101.14 771.68 1076.7 775.6 1039.89C779.52 1003.08 762.77 990.06 741.12 983.39C719.46 976.73 701.09 978.95 697.17 1015.76C693.25 1052.57 707.62 1087.81 729.28 1094.48Z" id="c2BczVVUzm"></path><path d="M367.63 45.21C367.63 45.21 367.63 45.21 367.63 45.21C367.63 324.18 367.63 479.16 367.63 510.16C367.63 510.16 367.63 510.16 367.63 510.16C195.06 510.16 99.2 510.16 80.02 510.16C80.02 510.16 80.02 510.16 80.02 510.16C80.02 231.19 80.02 76.2 80.02 45.21C80.02 45.21 80.02 45.21 80.02 45.21C252.59 45.21 348.46 45.21 367.63 45.21Z" id="h2EtL3ixl"></path><path d="M334.95 100.75C334.95 100.75 334.95 100.75 334.95 100.75C334.95 274.05 334.95 370.33 334.95 389.58C334.95 389.58 334.95 389.58 334.95 389.58C201.6 389.58 127.52 389.58 112.7 389.58C112.7 389.58 112.7 389.58 112.7 389.58C112.7 216.28 112.7 120.01 112.7 100.75C112.7 100.75 112.7 100.75 112.7 100.75C246.05 100.75 320.13 100.75 334.95 100.75Z" id="afycIedEM"></path><path d="M233.37 423.66C233.37 423.66 233.37 423.66 233.37 423.66C233.37 430.15 233.37 433.75 233.37 434.47C233.37 434.47 233.37 434.47 233.37 434.47C160.84 434.47 120.54 434.47 112.48 434.47C112.48 434.47 112.48 434.47 112.48 434.47C112.48 427.98 112.48 424.38 112.48 423.66C112.48 423.66 112.48 423.66 112.48 423.66C185.01 423.66 225.31 423.66 233.37 423.66Z" id="dtVUTD7qd"></path><path d="M233.37 456.1C233.37 456.1 233.37 456.1 233.37 456.1C233.37 462.58 233.37 466.19 233.37 466.91C233.37 466.91 233.37 466.91 233.37 466.91C160.84 466.91 120.54 466.91 112.48 466.91C112.48 466.91 112.48 466.91 112.48 466.91C112.48 460.42 112.48 456.82 112.48 456.1C112.48 456.1 112.48 456.1 112.48 456.1C185.01 456.1 225.31 456.1 233.37 456.1Z" id="a2ZITZdoOk"></path><path d="M152.25 201.99C138.19 201.99 126.8 221.36 126.8 245.24C126.8 269.13 138.19 288.5 152.25 288.5C166.3 288.5 177.7 269.13 177.7 245.24C177.7 221.36 166.3 201.99 152.25 201.99Z" id="c41gJGhyr8"></path><path d="M223.83 201.99C209.77 201.99 198.38 221.36 198.38 245.24C198.38 269.13 209.77 288.5 223.83 288.5C237.88 288.5 249.28 269.13 249.28 245.24C249.28 221.36 237.88 201.99 223.83 201.99Z" id="a2HFs8khCX"></path><path d="M295.4 201.99C281.35 201.99 269.95 221.36 269.95 245.24C269.95 269.13 281.35 288.5 295.4 288.5C309.46 288.5 320.85 269.13 320.85 245.24C320.85 221.36 309.46 201.99 295.4 201.99Z" id="c7h78hEEK"></path><path d="M223.83 50.61C216.8 50.61 211.1 60.29 211.1 72.24C211.1 84.18 216.8 93.86 223.83 93.86C230.85 93.86 236.55 84.18 236.55 72.24C236.55 60.29 230.85 50.61 223.83 50.61Z" id="cccPu2zWf"></path><path d="M504.43 945.5C504.43 945.5 504.43 945.5 504.43 945.5C504.43 1224.47 504.43 1379.45 504.43 1410.45C504.43 1410.45 504.43 1410.45 504.43 1410.45C331.86 1410.45 235.99 1410.45 216.82 1410.45C216.82 1410.45 216.82 1410.45 216.82 1410.45C216.82 1131.48 216.82 976.49 216.82 945.5C216.82 945.5 216.82 945.5 216.82 945.5C389.39 945.5 485.25 945.5 504.43 945.5Z" id="g51nZ8Do7"></path><path d="M471.75 1001.04C471.75 1001.04 471.75 1001.04 471.75 1001.04C471.75 1174.34 471.75 1270.62 471.75 1289.87C471.75 1289.87 471.75 1289.87 471.75 1289.87C338.4 1289.87 264.32 1289.87 249.5 1289.87C249.5 1289.87 249.5 1289.87 249.5 1289.87C249.5 1116.57 249.5 1020.3 249.5 1001.04C249.5 1001.04 249.5 1001.04 249.5 1001.04C382.85 1001.04 456.93 1001.04 471.75 1001.04Z" id="bjeQulQL5"></path><path d="M376.32 1048.51C376.32 1048.51 376.32 1048.51 376.32 1048.51C376.32 1127.96 376.32 1172.09 376.32 1180.92C376.32 1180.92 376.32 1180.92 376.32 1180.92C329.57 1180.92 303.6 1180.92 298.41 1180.92C298.41 1180.92 298.41 1180.92 298.41 1180.92C298.41 1101.47 298.41 1057.33 298.41 1048.51C298.41 1048.51 298.41 1048.51 298.41 1048.51C345.15 1048.51 371.13 1048.51 376.32 1048.51Z" id="b6duK8ni2"></path><path d="M328.23 1081.62L328.23 1242.41L422.84 1242.41L422.84 1081.62L328.23 1081.62ZM418.74 1235.43L332.34 1235.43L332.34 1088.59L418.74 1088.59L418.74 1235.43Z" id="a1M3PEJx3a"></path><path d="M370.17 1318.54C370.17 1318.54 370.17 1318.54 370.17 1318.54C370.17 1325.03 370.17 1328.63 370.17 1329.35C370.17 1329.35 370.17 1329.35 370.17 1329.35C297.64 1329.35 257.34 1329.35 249.28 1329.35C249.28 1329.35 249.28 1329.35 249.28 1329.35C249.28 1322.87 249.28 1319.26 249.28 1318.54C249.28 1318.54 249.28 1318.54 249.28 1318.54C321.81 1318.54 362.11 1318.54 370.17 1318.54Z" id="a4IL4xEfO"></path><path d="M360.62 950.9C353.6 950.9 347.9 960.58 347.9 972.53C347.9 984.47 353.6 994.15 360.62 994.15C367.65 994.15 373.35 984.47 373.35 972.53C373.35 960.58 367.65 950.9 360.62 950.9Z" id="i1q8XXwAQU"></path><path d="M1253.24 806.3C1253.24 806.3 1253.24 806.3 1253.24 806.3C1253.24 1085.27 1253.24 1240.26 1253.24 1271.25C1253.24 1271.25 1253.24 1271.25 1253.24 1271.25C1080.68 1271.25 984.81 1271.25 965.63 1271.25C965.63 1271.25 965.63 1271.25 965.63 1271.25C965.63 992.28 965.63 837.3 965.63 806.3C965.63 806.3 965.63 806.3 965.63 806.3C1138.2 806.3 1234.07 806.3 1253.24 806.3Z" id="c5nqCr14OE"></path><path d="M1220.56 861.84C1220.56 861.84 1220.56 861.84 1220.56 861.84C1220.56 1035.14 1220.56 1131.42 1220.56 1150.68C1220.56 1150.68 1220.56 1150.68 1220.56 1150.68C1087.21 1150.68 1013.13 1150.68 998.32 1150.68C998.32 1150.68 998.32 1150.68 998.32 1150.68C998.32 977.38 998.32 881.1 998.32 861.84C998.32 861.84 998.32 861.84 998.32 861.84C1131.66 861.84 1205.74 861.84 1220.56 861.84Z" id="cQETyXlJB"></path><path d="M1133.34 1087.96C1133.34 1087.96 1133.34 1087.96 1133.34 1087.96C1133.34 1102.4 1133.34 1110.43 1133.34 1112.04C1133.34 1112.04 1133.34 1112.04 1133.34 1112.04C1104.66 1112.04 1088.72 1112.04 1085.53 1112.04C1085.53 1112.04 1085.53 1112.04 1085.53 1112.04C1085.53 1097.59 1085.53 1089.56 1085.53 1087.96C1085.53 1087.96 1085.53 1087.96 1085.53 1087.96C1114.22 1087.96 1130.15 1087.96 1133.34 1087.96Z" id="g8tGJnq0e1"></path><path d="M1191.14 900.48C1191.14 900.48 1191.14 900.48 1191.14 900.48C1191.14 906.68 1191.14 910.12 1191.14 910.8C1191.14 910.8 1191.14 910.8 1191.14 910.8C1093.1 910.8 1038.62 910.8 1027.73 910.8C1027.73 910.8 1027.73 910.8 1027.73 910.8C1027.73 904.61 1027.73 901.17 1027.73 900.48C1027.73 900.48 1027.73 900.48 1027.73 900.48C1125.78 900.48 1180.25 900.48 1191.14 900.48Z" id="a47V2uVrOd"></path><path d="M1191.14 933.16C1191.14 933.16 1191.14 933.16 1191.14 933.16C1191.14 939.36 1191.14 942.79 1191.14 943.48C1191.14 943.48 1191.14 943.48 1191.14 943.48C1093.1 943.48 1038.62 943.48 1027.73 943.48C1027.73 943.48 1027.73 943.48 1027.73 943.48C1027.73 937.29 1027.73 933.85 1027.73 933.16C1027.73 933.16 1027.73 933.16 1027.73 933.16C1125.78 933.16 1180.25 933.16 1191.14 933.16Z" id="ai12ovmtT"></path><path d="M1191.14 965.84C1191.14 965.84 1191.14 965.84 1191.14 965.84C1191.14 972.03 1191.14 975.47 1191.14 976.16C1191.14 976.16 1191.14 976.16 1191.14 976.16C1093.1 976.16 1038.62 976.16 1027.73 976.16C1027.73 976.16 1027.73 976.16 1027.73 976.16C1027.73 969.97 1027.73 966.53 1027.73 965.84C1027.73 965.84 1027.73 965.84 1027.73 965.84C1125.78 965.84 1180.25 965.84 1191.14 965.84Z" id="aGdR1RZR"></path><path d="M1191.14 998.52C1191.14 998.52 1191.14 998.52 1191.14 998.52C1191.14 1004.71 1191.14 1008.15 1191.14 1008.84C1191.14 1008.84 1191.14 1008.84 1191.14 1008.84C1093.1 1008.84 1038.62 1008.84 1027.73 1008.84C1027.73 1008.84 1027.73 1008.84 1027.73 1008.84C1027.73 1002.65 1027.73 999.21 1027.73 998.52C1027.73 998.52 1027.73 998.52 1027.73 998.52C1125.78 998.52 1180.25 998.52 1191.14 998.52Z" id="f6dYypxjN9"></path><path d="M1191.14 1031.2C1191.14 1031.2 1191.14 1031.2 1191.14 1031.2C1191.14 1037.39 1191.14 1040.83 1191.14 1041.52C1191.14 1041.52 1191.14 1041.52 1191.14 1041.52C1093.1 1041.52 1038.62 1041.52 1027.73 1041.52C1027.73 1041.52 1027.73 1041.52 1027.73 1041.52C1027.73 1035.33 1027.73 1031.89 1027.73 1031.2C1027.73 1031.2 1027.73 1031.2 1027.73 1031.2C1125.78 1031.2 1180.25 1031.2 1191.14 1031.2Z" id="a1K5xVyULR"></path><path d="M1118.98 1179.35C1118.98 1179.35 1118.98 1179.35 1118.98 1179.35C1118.98 1185.83 1118.98 1189.44 1118.98 1190.16C1118.98 1190.16 1118.98 1190.16 1118.98 1190.16C1046.45 1190.16 1006.15 1190.16 998.1 1190.16C998.1 1190.16 998.1 1190.16 998.1 1190.16C998.1 1183.67 998.1 1180.07 998.1 1179.35C998.1 1179.35 998.1 1179.35 998.1 1179.35C1070.63 1179.35 1110.92 1179.35 1118.98 1179.35Z" id="ac5DmTwXk"></path><path d="M1166.7 1206.38C1166.7 1206.38 1166.7 1206.38 1166.7 1206.38C1166.7 1212.87 1166.7 1216.47 1166.7 1217.19C1166.7 1217.19 1166.7 1217.19 1166.7 1217.19C1065.54 1217.19 1009.34 1217.19 998.1 1217.19C998.1 1217.19 998.1 1217.19 998.1 1217.19C998.1 1210.7 998.1 1207.1 998.1 1206.38C998.1 1206.38 998.1 1206.38 998.1 1206.38C1099.26 1206.38 1155.46 1206.38 1166.7 1206.38Z" id="goWlI2c24"></path><path d="M1109.44 811.71C1102.41 811.71 1096.71 821.39 1096.71 833.33C1096.71 845.28 1102.41 854.96 1109.44 854.96C1116.46 854.96 1122.16 845.28 1122.16 833.33C1122.16 821.39 1116.46 811.71 1109.44 811.71Z" id="a1fwSxPvLJ"></path></defs><g><g><g><use xlink:href="#d16RLtbhLl" opacity="1" fill="#3f3d56" fill-opacity="1"></use><g><use xlink:href="#d16RLtbhLl" opacity="1" fill-opacity="0" stroke="#000000" stroke-width="1" stroke-opacity="0"></use></g></g><g><use xlink:href="#ehIzTFxEj" opacity="1" fill="#6c63ff" fill-opacity="1"></use><g><use xlink:href="#ehIzTFxEj" opacity="1" fill-opacity="0" stroke="#000000" stroke-width="1" stroke-opacity="0"></use></g></g><g><use xlink:href="#c1g0YtkEPN" opacity="1" fill="#6c63ff" fill-opacity="1"></use><g><use xlink:href="#c1g0YtkEPN" opacity="1" fill-opacity="0" stroke="#000000" stroke-width="1" stroke-opacity="0"></use></g></g><g><use xlink:href="#d48rP7rw3g" opacity="1" fill="#3f3d56" fill-opacity="1"></use><g><use xlink:href="#d48rP7rw3g" opacity="1" fill-opacity="0" stroke="#000000" stroke-width="1" stroke-opacity="0"></use></g></g><g><use xlink:href="#c2vZ8O063" opacity="1" fill="#3f3d56" fill-opacity="1"></use><g><use xlink:href="#c2vZ8O063" opacity="1" fill-opacity="0" stroke="#000000" stroke-width="1" stroke-opacity="0"></use></g></g><g><use xlink:href="#e5wcrKn1r" opacity="1" fill="#3f3d56" fill-opacity="1"></use><g><use xlink:href="#e5wcrKn1r" opacity="1" fill-opacity="0" stroke="#000000" stroke-width="1" stroke-opacity="0"></use></g></g><g><use xlink:href="#c62CuJ8l2" opacity="1" fill="#3f3d56" fill-opacity="1"></use><g><use xlink:href="#c62CuJ8l2" opacity="1" fill-opacity="0" stroke="#000000" stroke-width="1" stroke-opacity="0"></use></g></g><g><use xlink:href="#fABj9vR6A" opacity="1" fill="#d0cde1" fill-opacity="1"></use><g><use xlink:href="#fABj9vR6A" opacity="1" fill-opacity="0" stroke="#000000" stroke-width="1" stroke-opacity="0"></use></g></g><g><use xlink:href="#bC7Kf4CMj" opacity="1" fill="#d0cde1" fill-opacity="1"></use><g><use xlink:href="#bC7Kf4CMj" opacity="1" fill-opacity="0" stroke="#000000" stroke-width="1" stroke-opacity="0"></use></g></g><g><use xlink:href="#dDqawVL3" opacity="1" fill="#2f2e41" fill-opacity="1"></use><g><use xlink:href="#dDqawVL3" opacity="1" fill-opacity="0" stroke="#000000" stroke-width="1" stroke-opacity="0"></use></g></g><g><use xlink:href="#bs7Rw5MIW" opacity="1" fill="#2f2e41" fill-opacity="1"></use><g><use xlink:href="#bs7Rw5MIW" opacity="1" fill-opacity="0" stroke="#000000" stroke-width="1" stroke-opacity="0"></use></g></g><g><use xlink:href="#b2VjMda1R" opacity="1" fill="#2f2e41" fill-opacity="1"></use><g><use xlink:href="#b2VjMda1R" opacity="1" fill-opacity="0" stroke="#000000" stroke-width="1" stroke-opacity="0"></use></g></g><g><use xlink:href="#bhslbNTF5" opacity="1" fill="#2f2e41" fill-opacity="1"></use><g><use xlink:href="#bhslbNTF5" opacity="1" fill-opacity="0" stroke="#000000" stroke-width="1" stroke-opacity="0"></use></g></g><g><use xlink:href="#c12DlIVVjn" opacity="1" fill="#2f2e41" fill-opacity="1"></use><g><use xlink:href="#c12DlIVVjn" opacity="1" fill-opacity="0" stroke="#000000" stroke-width="1" stroke-opacity="0"></use></g></g><g><use xlink:href="#c4IMC15tCh" opacity="1" fill="#ffffff" fill-opacity="1"></use><g><use xlink:href="#c4IMC15tCh" opacity="1" fill-opacity="0" stroke="#000000" stroke-width="1" stroke-opacity="0"></use></g></g><g><use xlink:href="#a2BnQGJIQ5" opacity="1" fill="#3f3d56" fill-opacity="1"></use><g><use xlink:href="#a2BnQGJIQ5" opacity="1" fill-opacity="0" stroke="#000000" stroke-width="1" stroke-opacity="0"></use></g></g><g><use xlink:href="#c1dDE0c8pu" opacity="1" fill="#ffffff" fill-opacity="1"></use><g><use xlink:href="#c1dDE0c8pu" opacity="1" fill-opacity="0" stroke="#000000" stroke-width="1" stroke-opacity="0"></use></g></g><g><use xlink:href="#eyNf6v6cb" opacity="1" fill="#2f2e41" fill-opacity="1"></use><g><use xlink:href="#eyNf6v6cb" opacity="1" fill-opacity="0" stroke="#000000" stroke-width="1" stroke-opacity="0"></use></g></g><g><use xlink:href="#b1alNeqf6r" opacity="1" fill="#2f2e41" fill-opacity="1"></use><g><use xlink:href="#b1alNeqf6r" opacity="1" fill-opacity="0" stroke="#000000" stroke-width="1" stroke-opacity="0"></use></g></g><g><use xlink:href="#c2BczVVUzm" opacity="1" fill="#ffffff" fill-opacity="1"></use><g><use xlink:href="#c2BczVVUzm" opacity="1" fill-opacity="0" stroke="#000000" stroke-width="1" stroke-opacity="0"></use></g></g><g><use xlink:href="#h2EtL3ixl" opacity="1" fill="#d0cde1" fill-opacity="1"></use><g><use xlink:href="#h2EtL3ixl" opacity="1" fill-opacity="0" stroke="#000000" stroke-width="1" stroke-opacity="0"></use></g></g><g><use xlink:href="#afycIedEM" opacity="1" fill="#ffffff" fill-opacity="1"></use><g><use xlink:href="#afycIedEM" opacity="1" fill-opacity="0" stroke="#000000" stroke-width="1" stroke-opacity="0"></use></g></g><g><use xlink:href="#dtVUTD7qd" opacity="1" fill="#f2f2f2" fill-opacity="1"></use><g><use xlink:href="#dtVUTD7qd" opacity="1" fill-opacity="0" stroke="#000000" stroke-width="1" stroke-opacity="0"></use></g></g><g><use xlink:href="#a2ZITZdoOk" opacity="1" fill="#f2f2f2" fill-opacity="1"></use><g><use xlink:href="#a2ZITZdoOk" opacity="1" fill-opacity="0" stroke="#000000" stroke-width="1" stroke-opacity="0"></use></g></g><g><use xlink:href="#c41gJGhyr8" opacity="1" fill="#3f3d56" fill-opacity="1"></use><g><use xlink:href="#c41gJGhyr8" opacity="1" fill-opacity="0" stroke="#000000" stroke-width="1" stroke-opacity="0"></use></g></g><g><use xlink:href="#a2HFs8khCX" opacity="1" fill="#6c63ff" fill-opacity="1"></use><g><use xlink:href="#a2HFs8khCX" opacity="1" fill-opacity="0" stroke="#000000" stroke-width="1" stroke-opacity="0"></use></g></g><g><use xlink:href="#c7h78hEEK" opacity="1" fill="#e6e6e6" fill-opacity="1"></use><g><use xlink:href="#c7h78hEEK" opacity="1" fill-opacity="0" stroke="#000000" stroke-width="1" stroke-opacity="0"></use></g></g><g><use xlink:href="#cccPu2zWf" opacity="1" fill="#3f3d56" fill-opacity="1"></use><g><use xlink:href="#cccPu2zWf" opacity="1" fill-opacity="0" stroke="#000000" stroke-width="1" stroke-opacity="0"></use></g></g><g><use xlink:href="#g51nZ8Do7" opacity="1" fill="#d0cde1" fill-opacity="1"></use><g><use xlink:href="#g51nZ8Do7" opacity="1" fill-opacity="0" stroke="#000000" stroke-width="1" stroke-opacity="0"></use></g></g><g><use xlink:href="#bjeQulQL5" opacity="1" fill="#ffffff" fill-opacity="1"></use><g><use xlink:href="#bjeQulQL5" opacity="1" fill-opacity="0" stroke="#000000" stroke-width="1" stroke-opacity="0"></use></g></g><g><use xlink:href="#b6duK8ni2" opacity="1" fill="#6c63ff" fill-opacity="1"></use><g><use xlink:href="#b6duK8ni2" opacity="1" fill-opacity="0" stroke="#000000" stroke-width="1" stroke-opacity="0"></use></g></g><g><use xlink:href="#a1M3PEJx3a" opacity="1" fill="#3f3d56" fill-opacity="1"></use><g><use xlink:href="#a1M3PEJx3a" opacity="1" fill-opacity="0" stroke="#000000" stroke-width="1" stroke-opacity="0"></use></g></g><g><use xlink:href="#a4IL4xEfO" opacity="1" fill="#f2f2f2" fill-opacity="1"></use><g><use xlink:href="#a4IL4xEfO" opacity="1" fill-opacity="0" stroke="#000000" stroke-width="1" stroke-opacity="0"></use></g></g><g><use xlink:href="#i1q8XXwAQU" opacity="1" fill="#3f3d56" fill-opacity="1"></use><g><use xlink:href="#i1q8XXwAQU" opacity="1" fill-opacity="0" stroke="#000000" stroke-width="1" stroke-opacity="0"></use></g></g><g><use xlink:href="#c5nqCr14OE" opacity="1" fill="#d0cde1" fill-opacity="1"></use><g><use xlink:href="#c5nqCr14OE" opacity="1" fill-opacity="0" stroke="#000000" stroke-width="1" stroke-opacity="0"></use></g></g><g><use xlink:href="#cQETyXlJB" opacity="1" fill="#ffffff" fill-opacity="1"></use><g><use xlink:href="#cQETyXlJB" opacity="1" fill-opacity="0" stroke="#000000" stroke-width="1" stroke-opacity="0"></use></g></g><g><use xlink:href="#g8tGJnq0e1" opacity="1" fill="#3f3d56" fill-opacity="1"></use><g><use xlink:href="#g8tGJnq0e1" opacity="1" fill-opacity="0" stroke="#000000" stroke-width="1" stroke-opacity="0"></use></g></g><g><use xlink:href="#a47V2uVrOd" opacity="1" fill="#3f3d56" fill-opacity="1"></use><g><use xlink:href="#a47V2uVrOd" opacity="1" fill-opacity="0" stroke="#000000" stroke-width="1" stroke-opacity="0"></use></g></g><g><use xlink:href="#ai12ovmtT" opacity="1" fill="#3f3d56" fill-opacity="1"></use><g><use xlink:href="#ai12ovmtT" opacity="1" fill-opacity="0" stroke="#000000" stroke-width="1" stroke-opacity="0"></use></g></g><g><use xlink:href="#aGdR1RZR" opacity="1" fill="#3f3d56" fill-opacity="1"></use><g><use xlink:href="#aGdR1RZR" opacity="1" fill-opacity="0" stroke="#000000" stroke-width="1" stroke-opacity="0"></use></g></g><g><use xlink:href="#f6dYypxjN9" opacity="1" fill="#3f3d56" fill-opacity="1"></use><g><use xlink:href="#f6dYypxjN9" opacity="1" fill-opacity="0" stroke="#000000" stroke-width="1" stroke-opacity="0"></use></g></g><g><use xlink:href="#a1K5xVyULR" opacity="1" fill="#3f3d56" fill-opacity="1"></use><g><use xlink:href="#a1K5xVyULR" opacity="1" fill-opacity="0" stroke="#000000" stroke-width="1" stroke-opacity="0"></use></g></g><g><use xlink:href="#ac5DmTwXk" opacity="1" fill="#f2f2f2" fill-opacity="1"></use><g><use xlink:href="#ac5DmTwXk" opacity="1" fill-opacity="0" stroke="#000000" stroke-width="1" stroke-opacity="0"></use></g></g><g><use xlink:href="#goWlI2c24" opacity="1" fill="#f2f2f2" fill-opacity="1"></use><g><use xlink:href="#goWlI2c24" opacity="1" fill-opacity="0" stroke="#000000" stroke-width="1" stroke-opacity="0"></use></g></g><g><use xlink:href="#a1fwSxPvLJ" opacity="1" fill="#3f3d56" fill-opacity="1"></use><g><use xlink:href="#a1fwSxPvLJ" opacity="1" fill-opacity="0" stroke="#000000" stroke-width="1" stroke-opacity="0"></use></g></g></g></g></svg>