<?xml version="1.0" encoding="UTF-8" standalone="no"?>
<!DOCTYPE svg PUBLIC "-//W3C//DTD SVG 1.1//EN" "http://www.w3.org/Graphics/SVG/1.1/DTD/svg11.dtd">
<svg version="1.1" xmlns="http://www.w3.org/2000/svg" xmlns:xlink="http://www.w3.org/1999/xlink" preserveAspectRatio="xMidYMid meet" viewBox="0 0 1500 1500" width="1500" height="1500"><defs><path d="M1228.6 1404.82C1227.68 1407.03 1228.98 1409.69 1230.36 1411.45C1231.75 1413.22 1233.42 1415.11 1233.42 1417.62C1233.42 1419.64 1232.23 1421.37 1230.9 1422.45C1230.19 1423.03 1229.29 1423.76 1229.44 1424.85C1229.49 1425.13 1229.58 1425.39 1229.71 1425.62C1230.85 1427.87 1232.88 1429.19 1234.92 1429.69C1236.97 1430.19 1239.09 1429.97 1241.17 1429.75C1241.48 1429.77 1241.79 1429.63 1242.03 1429.37C1242.18 1429.11 1242.26 1428.79 1242.26 1428.47C1242.36 1427.08 1242.29 1425.61 1242.77 1424.35C1243.43 1422.64 1244.95 1421.77 1245.82 1420.23C1247.05 1418.13 1246.88 1415.21 1246.41 1412.66C1245.4 1407.1 1243.13 1400.76 1239.72 1396.91C1235.78 1392.48 1232.69 1399.57 1230.05 1402.77C1229.48 1403.34 1228.99 1404.04 1228.6 1404.82Z" id="b4dHcazFg8"></path><path d="M249.41 324.11C249.41 324.11 249.41 324.11 249.41 324.11C248.17 377.29 247.49 406.84 247.35 412.75C247.35 412.75 247.35 412.75 247.35 412.75C246.94 412.71 246.71 412.69 246.67 412.69C246.67 412.69 246.67 412.69 246.67 412.69C247.9 359.5 248.59 329.95 248.73 324.04C248.73 324.04 248.73 324.04 248.73 324.04C249.14 324.08 249.36 324.1 249.41 324.11Z" id="b7lLOoVXD"></path><path d="M233.39 338.53C233.15 339.08 232.98 339.55 232.93 339.66C236.79 346.03 238.99 356.13 238.86 366.8C238.85 367.04 238.85 367.29 238.84 367.55C238.84 367.8 238.83 368.05 238.82 368.3C238.46 378.87 235.83 388.47 231.75 394.12C231.94 394.74 232.11 395.21 232.15 395.33C236.4 389.41 239.13 379.39 239.5 368.36C239.51 368.11 239.52 367.86 239.52 367.61C239.53 367.36 239.53 367.11 239.53 366.86C239.68 355.74 237.4 345.2 233.39 338.53Z" id="bi63z9bVC"></path><path d="M519.23 576.04C532.61 576.04 543.45 594.85 543.45 618.04C543.45 622.49 543.45 644.72 543.45 684.74L1.65 684.74C1.65 644.72 1.65 622.49 1.65 618.04C1.65 594.85 12.49 576.04 25.87 576.04C25.87 576.04 469.89 576.04 519.23 576.04Z" id="e2IjiJQUVB"></path><path d="M502.71 570.39C500.92 557.93 493.65 550.34 486.46 553.44C480.47 556.02 476.27 565.35 476.28 576.04C476.28 576.16 476.3 576.27 476.3 576.38C474.62 576.66 472.97 577.25 471.36 578.16C470.44 571.82 468.03 566.44 464.72 563.32C469.03 559.19 472.43 552.73 474.41 544.93C485.37 544.62 494.19 530.89 494.19 513.93C494.19 496.78 485.17 482.87 474.04 482.87C471.61 482.89 469.19 483.6 466.88 484.99C465.19 472.5 457.99 464.76 450.79 467.69C443.59 470.62 439.13 483.11 440.82 495.6C440.91 496.27 441.02 496.94 441.14 497.6C440.61 498.25 440.11 498.98 439.61 499.7C437.07 495.92 433.78 494.02 430.45 494.41C426.4 474.24 413.69 463.59 402.06 470.61C393.23 475.94 387.26 490.25 387.09 506.45C385.3 506.7 383.52 507.31 381.81 508.28C381.62 506.97 381.36 505.68 381.04 504.45C384.61 498.98 386.68 491.14 386.73 482.87C386.73 465.72 377.71 451.81 366.58 451.81C364.14 451.83 361.72 452.55 359.42 453.93C357.73 441.45 350.53 433.7 343.33 436.63C336.13 439.56 331.66 452.06 333.35 464.54C333.44 465.22 333.55 465.89 333.68 466.55C327.96 473.43 324.43 484.54 324.11 496.59C323.92 496.88 323.7 497.12 323.52 497.43C323.86 495.21 324.03 492.93 324.04 490.64C324.04 473.48 315.02 459.58 303.89 459.58C301.46 459.6 299.04 460.31 296.73 461.69C295.04 449.21 287.84 441.47 280.64 444.4C273.44 447.33 268.97 459.82 270.66 472.3C270.76 472.98 270.87 473.65 270.99 474.31C260.85 486.47 258.3 510.58 265.32 528.18C266.85 532.03 268.77 535.36 270.99 538.02C270.08 542.53 270.08 547.44 270.99 551.95C268.75 554.67 266.81 558.07 265.26 561.98C263.3 549.66 255.95 542.42 248.85 545.82C243.51 548.37 239.64 556.36 239.11 565.9C237.31 564.08 235.37 562.72 233.35 561.87C236.98 557.72 239.83 551.84 241.57 544.93C252.53 544.62 261.36 530.89 261.36 513.93C261.36 496.78 252.33 482.87 241.21 482.87C238.77 482.89 236.35 483.6 234.05 484.99C232.36 472.5 225.15 464.76 217.95 467.69C210.75 470.62 206.29 483.11 207.98 495.6C208.07 496.27 208.18 496.94 208.3 497.6C208.02 497.95 207.76 498.36 207.48 498.73C206.78 498.61 206.1 498.4 205.39 498.4C202.95 498.42 200.53 499.13 198.22 500.51C198.14 499.93 198 499.39 197.89 498.82C199.44 486.47 194.92 474.28 187.8 471.6C186.61 471.15 185.39 470.99 184.18 471.12C180 450.96 167.2 440.48 155.57 447.72C143.94 454.96 137.9 477.17 142.08 497.33C143.46 503.99 145.86 509.87 149.03 514.33C147.49 514.64 145.97 515.21 144.49 516.04C142.76 503.65 135.56 496.05 128.42 499.05C126.5 499.86 124.71 501.4 123.17 503.56C119.13 495.23 113.15 490.49 106.88 490.64C104.44 490.66 102.02 491.37 99.72 492.75C98.03 480.27 90.82 472.52 83.62 475.45C76.42 478.38 71.96 490.88 73.65 503.36C73.74 504.04 73.85 504.71 73.97 505.37C67.94 512.6 64.34 524.51 64.34 537.22C64.34 537.34 64.36 537.45 64.36 537.57C61.18 536.74 57.94 537.35 54.94 539.34C53.25 526.85 46.04 519.11 38.85 522.04C31.65 524.97 27.18 537.46 28.87 549.95C28.96 550.62 29.07 551.29 29.2 551.95C19 563.92 16.33 587.96 23.23 605.64C28.42 618.94 37.81 625.29 46.82 621.6C48.92 642.65 60.46 656.76 72.6 653.12C79.76 650.97 85.87 642.92 88.97 631.53C94.24 650.85 107.54 659.11 118.68 649.98C123.59 645.96 127.48 638.97 129.63 630.34C132.27 630.27 134.88 629.4 137.34 627.75C141.4 647.92 154.12 658.57 165.75 651.53C171.65 647.96 176.41 640.28 178.89 630.34C182.15 630.22 185.36 628.85 188.28 626.31C194.34 644.88 207.94 651.42 218.65 640.91C222.88 636.76 226.22 630.32 228.14 622.57C229.34 622.52 230.54 622.3 231.72 621.92C236.43 641.73 249.5 651.16 260.92 642.99C266.3 639.15 270.6 631.83 272.92 622.57C274.68 622.49 276.42 622.04 278.12 621.24C287.36 625.71 297.19 619.19 302.36 605.19C299.28 625.94 306.47 647.1 318.44 652.46C329.1 657.23 340.18 647.85 344.56 630.34C347.82 630.22 351.03 628.85 353.95 626.31C360.01 644.88 373.61 651.42 384.32 640.91C388.55 636.76 391.89 630.32 393.81 622.57C397.08 622.46 400.29 621.08 403.21 618.54C409.19 637.05 422.7 643.63 433.37 633.24C434.43 632.21 435.44 631.02 436.4 629.7C438.59 650.7 450.2 664.64 462.31 660.83C467.91 659.07 472.9 653.67 476.27 645.73C486.02 658.69 499.98 655.49 507.45 638.58C508.57 636.05 509.51 633.28 510.23 630.34C521.19 630.03 530.02 616.3 530.02 599.34C530.02 582.18 520.99 568.28 509.87 568.28C507.43 568.3 505.01 569.01 502.71 570.39ZM109.6 552.82C109.44 552.81 109.28 552.75 109.12 552.75C108.45 552.78 107.78 552.9 107.12 553.1C107.16 552.96 107.21 552.83 107.24 552.69C108.05 552.62 108.86 552.48 109.66 552.26C109.64 552.44 109.62 552.63 109.6 552.82ZM296.48 538.03C299.89 533.92 302.59 528.24 304.26 521.64C310.22 521.58 315.88 517.14 319.83 509.41C319.66 510.9 319.57 512.41 319.57 513.93C319.58 516.3 319.81 518.65 320.25 520.9C316.4 525.54 313.49 532.16 311.92 539.82C307.05 536.53 301.67 536.36 296.73 539.34C296.67 538.88 296.56 538.47 296.48 538.03ZM430.85 540.79C431.42 540.79 431.99 540.72 432.55 540.59C433.42 545.62 434.87 550.28 436.82 554.29C436.4 554.5 435.95 554.62 435.54 554.86C434.82 549.87 433.17 545.43 430.84 542.23C430.83 541.76 430.87 541.27 430.85 540.79Z" id="b1rk1fPzSN"></path><path d="M46.76 614.87C20.94 614.86 0 651.15 0 695.93C0 697.38 0.02 698.84 0.07 700.29C3.1 772.59 27.36 1350.97 30.39 1423.27C31.72 1466.29 52.23 1500 77.08 1500C116.17 1500 428.93 1500 468.02 1500C492.87 1500 513.38 1466.29 514.71 1423.27C517.74 1350.97 542 772.59 545.03 700.29C546.42 655.58 526.64 617.39 500.86 614.98C500.02 614.9 499.18 614.87 498.34 614.87C408.03 614.87 137.07 614.87 46.76 614.87Z" id="de16b5hIJ"></path><path d="M95.68 614.87C95.68 614.87 95.68 614.87 95.68 614.87C95.68 1145.95 95.68 1440.99 95.68 1500C95.68 1500 95.68 1500 95.68 1500C79.56 1500 70.61 1500 68.82 1500C68.82 1500 68.82 1500 68.82 1500C68.82 968.92 68.82 673.87 68.82 614.87C68.82 614.87 68.82 614.87 68.82 614.87C84.94 614.87 93.89 614.87 95.68 614.87Z" id="a2A7xaIxAQ"></path><path d="M171.8 614.87C171.8 614.87 171.8 614.87 171.8 614.87C171.8 1145.95 171.8 1440.99 171.8 1500C171.8 1500 171.8 1500 171.8 1500C155.68 1500 146.73 1500 144.94 1500C144.94 1500 144.94 1500 144.94 1500C144.94 968.92 144.94 673.87 144.94 614.87C144.94 614.87 144.94 614.87 144.94 614.87C161.06 614.87 170.01 614.87 171.8 614.87Z" id="aLJJIILAb"></path><path d="M247.92 614.87C247.92 614.87 247.92 614.87 247.92 614.87C247.92 1145.95 247.92 1440.99 247.92 1500C247.92 1500 247.92 1500 247.92 1500C231.8 1500 222.85 1500 221.06 1500C221.06 1500 221.06 1500 221.06 1500C221.06 968.92 221.06 673.87 221.06 614.87C221.06 614.87 221.06 614.87 221.06 614.87C237.18 614.87 246.13 614.87 247.92 614.87Z" id="b2GD20H0"></path><path d="M324.04 614.87C324.04 614.87 324.04 614.87 324.04 614.87C324.04 1145.95 324.04 1440.99 324.04 1500C324.04 1500 324.04 1500 324.04 1500C307.92 1500 298.97 1500 297.18 1500C297.18 1500 297.18 1500 297.18 1500C297.18 968.92 297.18 673.87 297.18 614.87C297.18 614.87 297.18 614.87 297.18 614.87C313.3 614.87 322.25 614.87 324.04 614.87Z" id="e9gis2mSJr"></path><path d="M400.16 614.87C400.16 614.87 400.16 614.87 400.16 614.87C400.16 1145.95 400.16 1440.99 400.16 1500C400.16 1500 400.16 1500 400.16 1500C384.04 1500 375.09 1500 373.3 1500C373.3 1500 373.3 1500 373.3 1500C373.3 968.92 373.3 673.87 373.3 614.87C373.3 614.87 373.3 614.87 373.3 614.87C389.42 614.87 398.37 614.87 400.16 614.87Z" id="a27869wY3Q"></path><path d="M476.28 614.87C476.28 614.87 476.28 614.87 476.28 614.87C476.28 1145.95 476.28 1440.99 476.28 1500C476.28 1500 476.28 1500 476.28 1500C460.16 1500 451.21 1500 449.42 1500C449.42 1500 449.42 1500 449.42 1500C449.42 968.92 449.42 673.87 449.42 614.87C449.42 614.87 449.42 614.87 449.42 614.87C465.54 614.87 474.49 614.87 476.28 614.87Z" id="a1z8pEJgBr"></path><path d="M914.6 251.99L902.88 202.53C809.19 269.23 757.14 306.29 746.73 313.7C739.5 318.85 734.78 331.07 734.77 344.62C734.77 364.13 734.77 461.65 734.77 637.18L765.62 637.18L765.62 358.12L914.6 251.99Z" id="b60V6vdP9M"></path><path d="M894.53 148.78C894.53 148.78 894.53 148.78 894.53 148.78C894.53 259.59 894.53 321.15 894.53 333.46C894.53 333.46 894.53 333.46 894.53 333.46C874.35 333.46 863.14 333.46 860.9 333.46C860.9 333.46 860.9 333.46 860.9 333.46C860.9 222.65 860.9 161.09 860.9 148.78C860.9 148.78 860.9 148.78 860.9 148.78C881.08 148.78 892.29 148.78 894.53 148.78Z" id="a3CbIc8bKC"></path><path d="M841.28 187.65C841.28 187.65 841.28 187.65 841.28 187.65C841.28 298.46 841.28 360.03 841.28 372.34C841.28 372.34 841.28 372.34 841.28 372.34C821.11 372.34 809.9 372.34 807.65 372.34C807.65 372.34 807.65 372.34 807.65 372.34C807.65 261.53 807.65 199.96 807.65 187.65C807.65 187.65 807.65 187.65 807.65 187.65C827.83 187.65 839.04 187.65 841.28 187.65Z" id="b1ykORNzor"></path><path d="M765.6 357.76L755.79 160.93L789.42 160.93L789.42 345.61L789.42 345.61L765.6 357.76Z" id="e2ee9alTDE"></path><path d="M809.04 367.48C809.04 367.48 809.04 367.48 809.04 367.48C809.04 402.47 809.04 421.91 809.04 425.79C809.04 425.79 809.04 425.79 809.04 425.79C745.13 425.79 709.63 425.79 702.53 425.79C702.53 425.79 702.53 425.79 702.53 425.79C702.53 390.81 702.53 371.37 702.53 367.48C702.53 367.48 702.53 367.48 702.53 367.48C766.43 367.48 801.94 367.48 809.04 367.48Z" id="c1YHNOdO9"></path><path d="M809.06 447.69C809.06 447.69 809.06 447.69 809.06 447.69C809.06 482.68 809.06 502.12 809.06 506C809.06 506 809.06 506 809.06 506C745.15 506 709.65 506 702.55 506C702.55 506 702.55 506 702.55 506C702.55 471.02 702.55 451.58 702.55 447.69C702.55 447.69 702.55 447.69 702.55 447.69C766.45 447.69 801.95 447.69 809.06 447.69Z" id="arz4cy6TT"></path><path d="M809.04 527.9C809.04 527.9 809.04 527.9 809.04 527.9C809.04 562.89 809.04 582.33 809.04 586.21C809.04 586.21 809.04 586.21 809.04 586.21C745.13 586.21 709.63 586.21 702.53 586.21C702.53 586.21 702.53 586.21 702.53 586.21C702.53 551.23 702.53 531.79 702.53 527.9C702.53 527.9 702.53 527.9 702.53 527.9C766.43 527.9 801.94 527.9 809.04 527.9Z" id="b1gh7eZmu9"></path><path d="M654.89 1500L604.43 625.09L905.76 625.09L860.9 1500L860.9 1500L654.89 1500Z" id="bAY6ARD"></path><path d="M928.18 610.51C928.18 610.51 928.18 610.51 928.18 610.51C928.18 645.5 928.18 664.94 928.18 668.83C928.18 668.83 928.18 668.83 928.18 668.83C721.32 668.83 606.39 668.83 583.41 668.83C583.41 668.83 583.41 668.83 583.41 668.83C583.41 633.84 583.41 614.4 583.41 610.51C583.41 610.51 583.41 610.51 583.41 610.51C790.27 610.51 905.19 610.51 928.18 610.51Z" id="b2BGVa9Mwf"></path><path d="M1278.93 0.57C1214.94 0.57 1163.06 90.53 1163.06 201.49C1163.06 312.45 1214.94 402.41 1278.93 402.41C1342.92 402.41 1394.8 312.45 1394.8 201.49C1394.8 90.53 1342.92 0.57 1278.93 0.57Z" id="eErdWDIH8"></path><path d="M1239.68 300.3L1239.68 201.49L1239.68 102.68L1355.65 201.49L1355.65 201.49L1239.68 300.3Z" id="a4J5mhfuA7"></path><linearGradient id="gradienta3RUK8Z7Ap" gradientUnits="userSpaceOnUse" x1="1297.66" y1="300.3" x2="1297.66" y2="102.68"><stop style="stop-color: #000000;stop-opacity: 0.12" offset="0%"></stop><stop style="stop-color: #000000;stop-opacity: 0.09" offset="55.00000000000001%"></stop><stop style="stop-color: #000000;stop-opacity: 0.02" offset="100%"></stop></linearGradient><path d="M1246.63 288.45L1246.63 201.49L1246.63 114.53L1348.68 201.49L1348.68 201.49L1246.63 288.45Z" id="ikhjjF6OH"></path><path d="M1288.53 23.74C1323.04 23.79 1355.74 50.49 1377.74 96.59C1344.48 1.75 1273.18 -28.38 1218.49 29.29C1163.8 86.95 1146.42 210.58 1179.67 305.43C1182.63 313.86 1185.94 321.9 1189.58 329.49C1178.4 297.92 1172.51 261.59 1172.54 224.56C1172.59 113.56 1224.52 23.65 1288.53 23.74Z" id="b2AgvOtG5"></path><path d="M1258.58 1244.28C1255.76 1244.29 1253.48 1248.24 1253.48 1253.12C1253.48 1276.92 1253.48 1467.36 1253.48 1491.17C1253.48 1496.04 1255.76 1499.99 1258.58 1500C1282.21 1500 1471.27 1500 1494.9 1500C1497.72 1499.99 1500 1496.04 1500 1491.17C1500 1467.36 1500 1276.92 1500 1253.12C1500 1248.24 1497.72 1244.29 1494.9 1244.28C1447.64 1244.28 1305.84 1244.28 1258.58 1244.28Z" id="c2VA4WjAG"></path><path d="M1284.99 1265.28C1279.75 1265.29 1275.5 1272.65 1275.49 1281.74C1275.49 1299.82 1275.49 1444.46 1275.49 1462.54C1275.5 1471.63 1279.75 1478.99 1284.99 1479.01C1303.34 1479.01 1450.14 1479.01 1468.49 1479.01C1473.73 1478.99 1477.98 1471.63 1477.99 1462.54C1477.99 1444.46 1477.99 1299.82 1477.99 1281.74C1477.98 1272.65 1473.73 1265.29 1468.49 1265.28C1431.79 1265.28 1321.69 1265.28 1284.99 1265.28Z" id="cN7vONToU"></path><path d="M1261.23 1322.7C1261.23 1322.7 1261.23 1322.7 1261.23 1322.7C1261.23 1352.36 1261.23 1368.84 1261.23 1372.14C1261.23 1372.14 1261.23 1372.14 1261.23 1372.14C1187.37 1372.14 1146.34 1372.14 1138.13 1372.14C1138.13 1372.14 1138.13 1372.14 1138.13 1372.14C1138.13 1342.48 1138.13 1326 1138.13 1322.7C1138.13 1322.7 1138.13 1322.7 1138.13 1322.7C1211.99 1322.7 1253.03 1322.7 1261.23 1322.7Z" id="iwee8OlMB"></path><path d="M923.92 1244.28C921.11 1244.29 918.83 1248.24 918.83 1253.12C918.83 1276.92 918.83 1467.36 918.83 1491.17C918.83 1496.04 921.11 1499.99 923.92 1500C947.55 1500 1136.62 1500 1160.25 1500C1163.06 1499.99 1165.34 1496.04 1165.34 1491.17C1165.34 1467.36 1165.34 1276.92 1165.34 1253.12C1165.34 1248.24 1163.06 1244.29 1160.25 1244.28C1112.99 1244.28 971.19 1244.28 923.92 1244.28Z" id="aCAlsUcXK"></path><path d="M950.34 1265.28C945.09 1265.29 940.84 1272.65 940.84 1281.74C940.84 1299.82 940.84 1444.46 940.84 1462.54C940.84 1471.63 945.09 1479 950.34 1479.01C968.69 1479.01 1115.49 1479.01 1133.84 1479.01C1139.08 1479 1143.33 1471.63 1143.34 1462.54C1143.34 1444.46 1143.34 1299.82 1143.34 1281.74C1143.33 1272.65 1139.08 1265.29 1133.84 1265.28C1097.14 1265.28 987.04 1265.28 950.34 1265.28Z" id="aOKPl8cFc"></path></defs><g><g><g><use xlink:href="#b4dHcazFg8" opacity="1" fill="#3f3d56" fill-opacity="1"></use><g><use xlink:href="#b4dHcazFg8" opacity="1" fill-opacity="0" stroke="#000000" stroke-width="1" stroke-opacity="0"></use></g></g><g><use xlink:href="#b7lLOoVXD" opacity="1" fill="#ffffff" fill-opacity="1"></use><g><use xlink:href="#b7lLOoVXD" opacity="1" fill-opacity="0" stroke="#000000" stroke-width="1" stroke-opacity="0"></use></g></g><g><use xlink:href="#bi63z9bVC" opacity="1" fill="#ffffff" fill-opacity="1"></use><g><use xlink:href="#bi63z9bVC" opacity="1" fill-opacity="0" stroke="#000000" stroke-width="1" stroke-opacity="0"></use></g></g><g><use xlink:href="#e2IjiJQUVB" opacity="1" fill="#3f3d56" fill-opacity="1"></use><g><use xlink:href="#e2IjiJQUVB" opacity="1" fill-opacity="0" stroke="#000000" stroke-width="1" stroke-opacity="0"></use></g></g><g><use xlink:href="#b1rk1fPzSN" opacity="1" fill="#f9a825" fill-opacity="1"></use><g><use xlink:href="#b1rk1fPzSN" opacity="1" fill-opacity="0" stroke="#000000" stroke-width="1" stroke-opacity="0"></use></g></g><g><use xlink:href="#de16b5hIJ" opacity="1" fill="#3f3d56" fill-opacity="1"></use><g><use xlink:href="#de16b5hIJ" opacity="1" fill-opacity="0" stroke="#000000" stroke-width="1" stroke-opacity="0"></use></g></g><g><use xlink:href="#a2A7xaIxAQ" opacity="1" fill="#6c63ff" fill-opacity="1"></use><g><use xlink:href="#a2A7xaIxAQ" opacity="1" fill-opacity="0" stroke="#000000" stroke-width="1" stroke-opacity="0"></use></g></g><g><use xlink:href="#aLJJIILAb" opacity="1" fill="#6c63ff" fill-opacity="1"></use><g><use xlink:href="#aLJJIILAb" opacity="1" fill-opacity="0" stroke="#000000" stroke-width="1" stroke-opacity="0"></use></g></g><g><use xlink:href="#b2GD20H0" opacity="1" fill="#6c63ff" fill-opacity="1"></use><g><use xlink:href="#b2GD20H0" opacity="1" fill-opacity="0" stroke="#000000" stroke-width="1" stroke-opacity="0"></use></g></g><g><use xlink:href="#e9gis2mSJr" opacity="1" fill="#6c63ff" fill-opacity="1"></use><g><use xlink:href="#e9gis2mSJr" opacity="1" fill-opacity="0" stroke="#000000" stroke-width="1" stroke-opacity="0"></use></g></g><g><use xlink:href="#a27869wY3Q" opacity="1" fill="#6c63ff" fill-opacity="1"></use><g><use xlink:href="#a27869wY3Q" opacity="1" fill-opacity="0" stroke="#000000" stroke-width="1" stroke-opacity="0"></use></g></g><g><use xlink:href="#a1z8pEJgBr" opacity="1" fill="#6c63ff" fill-opacity="1"></use><g><use xlink:href="#a1z8pEJgBr" opacity="1" fill-opacity="0" stroke="#000000" stroke-width="1" stroke-opacity="0"></use></g></g><g><use xlink:href="#b60V6vdP9M" opacity="1" fill="#3f3d56" fill-opacity="1"></use><g><use xlink:href="#b60V6vdP9M" opacity="1" fill-opacity="0" stroke="#000000" stroke-width="1" stroke-opacity="0"></use></g></g><g><use xlink:href="#a3CbIc8bKC" opacity="1" fill="#6c63ff" fill-opacity="1"></use><g><use xlink:href="#a3CbIc8bKC" opacity="1" fill-opacity="0" stroke="#000000" stroke-width="1" stroke-opacity="0"></use></g></g><g><use xlink:href="#b1ykORNzor" opacity="1" fill="#6c63ff" fill-opacity="1"></use><g><use xlink:href="#b1ykORNzor" opacity="1" fill-opacity="0" stroke="#000000" stroke-width="1" stroke-opacity="0"></use></g></g><g><use xlink:href="#e2ee9alTDE" opacity="1" fill="#6c63ff" fill-opacity="1"></use><g><use xlink:href="#e2ee9alTDE" opacity="1" fill-opacity="0" stroke="#000000" stroke-width="1" stroke-opacity="0"></use></g></g><g><use xlink:href="#c1YHNOdO9" opacity="1" fill="#6c63ff" fill-opacity="1"></use><g><use xlink:href="#c1YHNOdO9" opacity="1" fill-opacity="0" stroke="#000000" stroke-width="1" stroke-opacity="0"></use></g></g><g><use xlink:href="#arz4cy6TT" opacity="1" fill="#6c63ff" fill-opacity="1"></use><g><use xlink:href="#arz4cy6TT" opacity="1" fill-opacity="0" stroke="#000000" stroke-width="1" stroke-opacity="0"></use></g></g><g><use xlink:href="#b1gh7eZmu9" opacity="1" fill="#6c63ff" fill-opacity="1"></use><g><use xlink:href="#b1gh7eZmu9" opacity="1" fill-opacity="0" stroke="#000000" stroke-width="1" stroke-opacity="0"></use></g></g><g><use xlink:href="#bAY6ARD" opacity="1" fill="#3f3d56" fill-opacity="1"></use><g><use xlink:href="#bAY6ARD" opacity="1" fill-opacity="0" stroke="#000000" stroke-width="1" stroke-opacity="0"></use></g></g><g><use xlink:href="#b2BGVa9Mwf" opacity="1" fill="#3f3d56" fill-opacity="1"></use><g><use xlink:href="#b2BGVa9Mwf" opacity="1" fill-opacity="0" stroke="#000000" stroke-width="1" stroke-opacity="0"></use></g></g><g><use xlink:href="#eErdWDIH8" opacity="1" fill="#3ad29f" fill-opacity="1"></use><g><use xlink:href="#eErdWDIH8" opacity="1" fill-opacity="0" stroke="#000000" stroke-width="1" stroke-opacity="0"></use></g></g><g><use xlink:href="#a4J5mhfuA7" opacity="1" fill="url(#gradienta3RUK8Z7Ap)"></use><g><use xlink:href="#a4J5mhfuA7" opacity="1" fill-opacity="0" stroke="#000000" stroke-width="1" stroke-opacity="0"></use></g></g><g><use xlink:href="#ikhjjF6OH" opacity="1" fill="#ffffff" fill-opacity="1"></use><g><use xlink:href="#ikhjjF6OH" opacity="1" fill-opacity="0" stroke="#000000" stroke-width="1" stroke-opacity="0"></use></g></g><g><use xlink:href="#b2AgvOtG5" opacity="1" fill="#ffffff" fill-opacity="1"></use><g><use xlink:href="#b2AgvOtG5" opacity="1" fill-opacity="0" stroke="#000000" stroke-width="1" stroke-opacity="0"></use></g></g><g><use xlink:href="#c2VA4WjAG" opacity="1" fill="#3f3d56" fill-opacity="1"></use><g><use xlink:href="#c2VA4WjAG" opacity="1" fill-opacity="0" stroke="#000000" stroke-width="1" stroke-opacity="0"></use></g></g><g><use xlink:href="#cN7vONToU" opacity="1" fill="#ff6584" fill-opacity="1"></use><g><use xlink:href="#cN7vONToU" opacity="1" fill-opacity="0" stroke="#000000" stroke-width="1" stroke-opacity="0"></use></g></g><g><use xlink:href="#iwee8OlMB" opacity="1" fill="#3f3d56" fill-opacity="1"></use><g><use xlink:href="#iwee8OlMB" opacity="1" fill-opacity="0" stroke="#000000" stroke-width="1" stroke-opacity="0"></use></g></g><g><use xlink:href="#aCAlsUcXK" opacity="1" fill="#3f3d56" fill-opacity="1"></use><g><use xlink:href="#aCAlsUcXK" opacity="1" fill-opacity="0" stroke="#000000" stroke-width="1" stroke-opacity="0"></use></g></g><g><use xlink:href="#aOKPl8cFc" opacity="1" fill="#6c63ff" fill-opacity="1"></use><g><use xlink:href="#aOKPl8cFc" opacity="1" fill-opacity="0" stroke="#000000" stroke-width="1" stroke-opacity="0"></use></g></g></g></g></svg>