<?xml version="1.0" encoding="UTF-8" standalone="no"?>
<!DOCTYPE svg PUBLIC "-//W3C//DTD SVG 1.1//EN" "http://www.w3.org/Graphics/SVG/1.1/DTD/svg11.dtd">
<svg version="1.1" xmlns="http://www.w3.org/2000/svg" xmlns:xlink="http://www.w3.org/1999/xlink" preserveAspectRatio="xMidYMid meet" viewBox="0 0 1500 1500" width="1500" height="1500"><defs><path d="M1301.77 0.29C1301.77 0.29 1301.77 0.29 1301.77 0.29C1301.77 597.31 1301.77 929 1301.77 995.33C1301.77 995.33 1301.77 995.33 1301.77 995.33C520.71 995.33 86.78 995.33 0 995.33C0 995.33 0 995.33 0 995.33C0 398.3 0 66.62 0 0.29C0 0.29 0 0.29 0 0.29C781.06 0.29 1214.98 0.29 1301.77 0.29Z" id="c5ZmW936c"></path><path d="M1301.77 76.83L1301.77 49.49L1261.74 49.49L1261.74 0.29L1244.34 0.29L1244.34 49.49L57.43 49.49L57.43 0.29L40.03 0.29L40.03 49.49L0 49.49L0 76.83L40.03 76.83L40.03 918.79L0 918.79L0 946.13L40.03 946.13L40.03 995.33L57.43 995.33L57.43 946.13L1244.34 946.13L1244.34 995.33L1261.74 995.33L1261.74 946.13L1301.77 946.13L1301.77 918.79L1261.74 918.79L1261.74 76.83L1301.77 76.83ZM1244.34 918.79L57.43 918.79L57.43 76.83L1244.34 76.83L1244.34 918.79Z" id="acMciL40k"></path><path d="M780.63 131.5C780.63 131.5 780.63 131.5 780.63 131.5C780.63 315.51 780.63 417.74 780.63 438.19C780.63 438.19 780.63 438.19 780.63 438.19C657.48 438.19 589.06 438.19 575.38 438.19C575.38 438.19 575.38 438.19 575.38 438.19C575.38 254.17 575.38 151.95 575.38 131.5C575.38 131.5 575.38 131.5 575.38 131.5C698.53 131.5 766.95 131.5 780.63 131.5Z" id="iHICSP8nK"></path><path d="M757.31 168.14C757.31 168.14 757.31 168.14 757.31 168.14C757.31 282.45 757.31 345.95 757.31 358.65C757.31 358.65 757.31 358.65 757.31 358.65C662.15 358.65 609.28 358.65 598.7 358.65C598.7 358.65 598.7 358.65 598.7 358.65C598.7 244.34 598.7 180.84 598.7 168.14C598.7 168.14 598.7 168.14 598.7 168.14C693.87 168.14 746.74 168.14 757.31 168.14Z" id="a5YZL49vpH"></path><path d="M689.21 199.45C689.21 199.45 689.21 199.45 689.21 199.45C689.21 251.85 689.21 280.96 689.21 286.79C689.21 286.79 689.21 286.79 689.21 286.79C655.85 286.79 637.31 286.79 633.6 286.79C633.6 286.79 633.6 286.79 633.6 286.79C633.6 234.38 633.6 205.27 633.6 199.45C633.6 199.45 633.6 199.45 633.6 199.45C666.97 199.45 685.5 199.45 689.21 199.45Z" id="a1aqJZ7Bln"></path><path d="M654.89 221.29L654.89 327.34L722.41 327.34L722.41 221.29L654.89 221.29ZM719.48 322.74L657.82 322.74L657.82 225.89L719.48 225.89L719.48 322.74Z" id="acLLzk46W"></path><path d="M684.82 377.56C684.82 377.56 684.82 377.56 684.82 377.56C684.82 381.84 684.82 384.22 684.82 384.69C684.82 384.69 684.82 384.69 684.82 384.69C633.05 384.69 604.3 384.69 598.55 384.69C598.55 384.69 598.55 384.69 598.55 384.69C598.55 380.42 598.55 378.04 598.55 377.56C598.55 377.56 598.55 377.56 598.55 377.56C650.31 377.56 679.07 377.56 684.82 377.56Z" id="bD9WqGYws"></path><path d="M678.01 135.07C672.99 135.07 668.92 141.45 668.92 149.33C668.92 157.21 672.99 163.6 678.01 163.6C683.02 163.6 687.09 157.21 687.09 149.33C687.09 141.45 683.02 135.07 678.01 135.07Z" id="a3IujZMRt1"></path><path d="M858.05 573.83C858.05 573.83 858.05 573.83 858.05 573.83C858.05 757.84 858.05 860.07 858.05 880.52C858.05 880.52 858.05 880.52 858.05 880.52C734.89 880.52 666.47 880.52 652.79 880.52C652.79 880.52 652.79 880.52 652.79 880.52C652.79 696.51 652.79 594.28 652.79 573.83C652.79 573.83 652.79 573.83 652.79 573.83C775.94 573.83 844.36 573.83 858.05 573.83Z" id="ayjuJacmj"></path><path d="M834.72 610.47C834.72 610.47 834.72 610.47 834.72 610.47C834.72 724.78 834.72 788.28 834.72 800.99C834.72 800.99 834.72 800.99 834.72 800.99C739.56 800.99 686.69 800.99 676.11 800.99C676.11 800.99 676.11 800.99 676.11 800.99C676.11 686.68 676.11 623.17 676.11 610.47C676.11 610.47 676.11 610.47 676.11 610.47C771.28 610.47 824.15 610.47 834.72 610.47Z" id="e1jPuPTcAA"></path><path d="M762.23 823.46C762.23 823.46 762.23 823.46 762.23 823.46C762.23 827.74 762.23 830.12 762.23 830.59C762.23 830.59 762.23 830.59 762.23 830.59C710.47 830.59 681.71 830.59 675.96 830.59C675.96 830.59 675.96 830.59 675.96 830.59C675.96 826.31 675.96 823.94 675.96 823.46C675.96 823.46 675.96 823.46 675.96 823.46C727.72 823.46 756.48 823.46 762.23 823.46Z" id="a2WH9ghn1"></path><path d="M762.23 844.86C762.23 844.86 762.23 844.86 762.23 844.86C762.23 849.14 762.23 851.51 762.23 851.99C762.23 851.99 762.23 851.99 762.23 851.99C710.47 851.99 681.71 851.99 675.96 851.99C675.96 851.99 675.96 851.99 675.96 851.99C675.96 847.71 675.96 845.33 675.96 844.86C675.96 844.86 675.96 844.86 675.96 844.86C727.72 844.86 756.48 844.86 762.23 844.86Z" id="c6eMS204V"></path><path d="M704.34 677.25C694.31 677.25 686.17 690.02 686.17 705.78C686.17 721.54 694.31 734.31 704.34 734.31C714.37 734.31 722.5 721.54 722.5 705.78C722.5 690.02 714.37 677.25 704.34 677.25Z" id="biGtvZf7N"></path><path d="M755.42 677.25C745.39 677.25 737.26 690.02 737.26 705.78C737.26 721.54 745.39 734.31 755.42 734.31C765.45 734.31 773.58 721.54 773.58 705.78C773.58 690.02 765.45 677.25 755.42 677.25Z" id="ail60rvKG"></path><path d="M806.5 677.25C796.47 677.25 788.34 690.02 788.34 705.78C788.34 721.54 796.47 734.31 806.5 734.31C816.53 734.31 824.66 721.54 824.66 705.78C824.66 690.02 816.53 677.25 806.5 677.25Z" id="b14IJb5Zo2"></path><path d="M755.42 577.4C750.4 577.4 746.34 583.79 746.34 591.66C746.34 599.54 750.4 605.93 755.42 605.93C760.43 605.93 764.5 599.54 764.5 591.66C764.5 583.79 760.43 577.4 755.42 577.4Z" id="aX6YUQD4N"></path><path d="M543.91 478.83C543.91 478.83 543.91 478.83 543.91 478.83C543.91 662.84 543.91 765.07 543.91 785.51C543.91 785.51 543.91 785.51 543.91 785.51C420.76 785.51 352.34 785.51 338.66 785.51C338.66 785.51 338.66 785.51 338.66 785.51C338.66 601.5 338.66 499.27 338.66 478.83C338.66 478.83 338.66 478.83 338.66 478.83C461.81 478.83 530.23 478.83 543.91 478.83Z" id="c5RCHv96y"></path><path d="M520.59 514.65C520.59 514.65 520.59 514.65 520.59 514.65C520.59 628.96 520.59 692.46 520.59 705.16C520.59 705.16 520.59 705.16 520.59 705.16C425.42 705.16 372.56 705.16 361.98 705.16C361.98 705.16 361.98 705.16 361.98 705.16C361.98 590.85 361.98 527.35 361.98 514.65C361.98 514.65 361.98 514.65 361.98 514.65C457.15 514.65 510.02 514.65 520.59 514.65Z" id="a61zuFxYK"></path><path d="M430.72 571.68C409.46 571.68 392.22 598.76 392.22 632.17C392.22 665.57 409.46 692.66 430.72 692.66C451.99 692.66 469.23 665.57 469.23 632.17C469.23 598.76 451.99 571.68 430.72 571.68Z" id="c3sgrjBOKU"></path><path d="M393.79 602.99C393.79 561.11 415.41 527.15 442.07 527.15C468.74 527.15 490.35 561.11 490.35 602.99C490.32 644.85 468.73 678.78 442.07 678.82C415.41 678.82 393.79 644.87 393.79 602.99ZM395.55 602.99C395.55 643.35 416.38 676.07 442.07 676.07C467.77 676.07 488.6 643.35 488.6 602.99C488.6 602.99 488.6 602.99 488.6 602.99C488.57 562.65 467.76 529.96 442.07 529.91C416.38 529.91 395.55 562.63 395.55 602.99Z" id="b2YD63mtSg"></path><path d="M448.1 745.47C448.1 745.47 448.1 745.47 448.1 745.47C448.1 749.75 448.1 752.12 448.1 752.6C448.1 752.6 448.1 752.6 448.1 752.6C396.33 752.6 367.58 752.6 361.82 752.6C361.82 752.6 361.82 752.6 361.82 752.6C361.82 748.32 361.82 745.94 361.82 745.47C361.82 745.47 361.82 745.47 361.82 745.47C413.59 745.47 442.34 745.47 448.1 745.47Z" id="b2jyOskPke"></path><path d="M482.15 724.07C482.15 724.07 482.15 724.07 482.15 724.07C482.15 728.35 482.15 730.73 482.15 731.2C482.15 731.2 482.15 731.2 482.15 731.2C409.95 731.2 369.85 731.2 361.82 731.2C361.82 731.2 361.82 731.2 361.82 731.2C361.82 726.92 361.82 724.55 361.82 724.07C361.82 724.07 361.82 724.07 361.82 724.07C434.02 724.07 474.13 724.07 482.15 724.07Z" id="iJwN2W9Mj"></path><path d="M441.29 481.58C436.27 481.58 432.2 487.96 432.2 495.84C432.2 503.72 436.27 510.1 441.29 510.1C446.3 510.1 450.37 503.72 450.37 495.84C450.37 487.96 446.3 481.58 441.29 481.58Z" id="g1fOQQ3WBt"></path><path d="M318.31 126.03C318.31 126.03 318.31 126.03 318.31 126.03C318.31 310.04 318.31 412.27 318.31 432.72C318.31 432.72 318.31 432.72 318.31 432.72C195.16 432.72 126.74 432.72 113.06 432.72C113.06 432.72 113.06 432.72 113.06 432.72C113.06 248.71 113.06 146.48 113.06 126.03C113.06 126.03 113.06 126.03 113.06 126.03C236.21 126.03 304.63 126.03 318.31 126.03Z" id="a3O83s5pU9"></path><path d="M294.99 162.67C294.99 162.67 294.99 162.67 294.99 162.67C294.99 276.98 294.99 340.48 294.99 353.19C294.99 353.19 294.99 353.19 294.99 353.19C199.83 353.19 146.96 353.19 136.38 353.19C136.38 353.19 136.38 353.19 136.38 353.19C136.38 238.88 136.38 175.37 136.38 162.67C136.38 162.67 136.38 162.67 136.38 162.67C231.55 162.67 284.42 162.67 294.99 162.67Z" id="d2CY9NB8yy"></path><path d="M232.75 311.82C232.75 311.82 232.75 311.82 232.75 311.82C232.75 321.34 232.75 326.64 232.75 327.7C232.75 327.7 232.75 327.7 232.75 327.7C212.27 327.7 200.9 327.7 198.63 327.7C198.63 327.7 198.63 327.7 198.63 327.7C198.63 318.17 198.63 312.87 198.63 311.82C198.63 311.82 198.63 311.82 198.63 311.82C219.1 311.82 230.47 311.82 232.75 311.82Z" id="abFoCUK3B"></path><path d="M274 188.16C274 188.16 274 188.16 274 188.16C274 192.24 274 194.51 274 194.96C274 194.96 274 194.96 274 194.96C204.02 194.96 165.15 194.96 157.38 194.96C157.38 194.96 157.38 194.96 157.38 194.96C157.38 190.88 157.38 188.61 157.38 188.16C157.38 188.16 157.38 188.16 157.38 188.16C227.35 188.16 266.22 188.16 274 188.16Z" id="d1fmBhyEkJ"></path><path d="M274 209.71C274 209.71 274 209.71 274 209.71C274 213.8 274 216.07 274 216.52C274 216.52 274 216.52 274 216.52C204.02 216.52 165.15 216.52 157.38 216.52C157.38 216.52 157.38 216.52 157.38 216.52C157.38 212.44 157.38 210.17 157.38 209.71C157.38 209.71 157.38 209.71 157.38 209.71C227.35 209.71 266.22 209.71 274 209.71Z" id="g2i0CX7Jh"></path><path d="M274 231.27C274 231.27 274 231.27 274 231.27C274 235.35 274 237.62 274 238.07C274 238.07 274 238.07 274 238.07C204.02 238.07 165.15 238.07 157.38 238.07C157.38 238.07 157.38 238.07 157.38 238.07C157.38 233.99 157.38 231.72 157.38 231.27C157.38 231.27 157.38 231.27 157.38 231.27C227.35 231.27 266.22 231.27 274 231.27Z" id="a10ZVMZLGs"></path><path d="M274 252.82C274 252.82 274 252.82 274 252.82C274 256.91 274 259.18 274 259.63C274 259.63 274 259.63 274 259.63C204.02 259.63 165.15 259.63 157.38 259.63C157.38 259.63 157.38 259.63 157.38 259.63C157.38 255.55 157.38 253.28 157.38 252.82C157.38 252.82 157.38 252.82 157.38 252.82C227.35 252.82 266.22 252.82 274 252.82Z" id="bbnd0OQYG"></path><path d="M274 274.38C274 274.38 274 274.38 274 274.38C274 278.46 274 280.73 274 281.18C274 281.18 274 281.18 274 281.18C204.02 281.18 165.15 281.18 157.38 281.18C157.38 281.18 157.38 281.18 157.38 281.18C157.38 277.1 157.38 274.83 157.38 274.38C157.38 274.38 157.38 274.38 157.38 274.38C227.35 274.38 266.22 274.38 274 274.38Z" id="damfG3S2f"></path><path d="M222.5 372.1C222.5 372.1 222.5 372.1 222.5 372.1C222.5 376.37 222.5 378.75 222.5 379.23C222.5 379.23 222.5 379.23 222.5 379.23C170.73 379.23 141.98 379.23 136.23 379.23C136.23 379.23 136.23 379.23 136.23 379.23C136.23 374.95 136.23 372.57 136.23 372.1C136.23 372.1 136.23 372.1 136.23 372.1C187.99 372.1 216.75 372.1 222.5 372.1Z" id="aEDtovlNL"></path><path d="M256.55 389.93C256.55 389.93 256.55 389.93 256.55 389.93C256.55 394.2 256.55 396.58 256.55 397.06C256.55 397.06 256.55 397.06 256.55 397.06C184.36 397.06 144.25 397.06 136.23 397.06C136.23 397.06 136.23 397.06 136.23 397.06C136.23 392.78 136.23 390.4 136.23 389.93C136.23 389.93 136.23 389.93 136.23 389.93C208.42 389.93 248.53 389.93 256.55 389.93Z" id="b5h2ksoX0"></path><path d="M215.69 129.6C210.67 129.6 206.61 135.99 206.61 143.86C206.61 151.74 210.67 158.13 215.69 158.13C220.7 158.13 224.77 151.74 224.77 143.86C224.77 135.99 220.7 129.6 215.69 129.6Z" id="a1xZmfCKFd"></path><path d="M1095.89 343.54L1137.92 348.39L1135.31 344.29L1143.21 523.67C1145.58 577.48 1146.89 607.38 1147.16 613.36C1147.32 616.98 1147.48 620.6 1147.63 624.23C1147.76 627.24 1148.29 630.14 1146.02 630.89C1141.5 632.36 1136.8 632.98 1132.22 633.89C1118.27 636.65 1107.04 638.08 1104.25 638.54C1066.86 643.59 1029.27 643.96 991.84 639.65C977.81 638.04 966.63 635.95 963.83 635.54C960.36 634.93 956.06 634.69 954.8 628.59C953.49 622.29 953.27 615.14 952.68 608.61C948.73 564.96 947.84 529.64 947.3 520.86C945.36 462.28 946.68 403.54 951.25 345.31C952.09 334.62 952.91 326.09 953.09 323.95C953.57 318.79 948.54 316.56 948.05 321.77C942.44 381.94 940.28 442.78 941.6 503.56C942.62 549.17 945.79 585.41 946.25 594.51C947.17 605.96 948.05 615.09 948.25 617.38C948.82 623.44 948.97 630.58 951.26 635.79C953.48 640.81 957.19 642.42 960.85 643.18C965.5 644.16 970.18 644.86 974.85 645.57C1013.62 651.51 1052.63 652.42 1091.5 648.28C1106.17 646.72 1117.86 644.61 1120.79 644.2C1127.99 642.96 1133.74 641.76 1135.18 641.49C1138.7 640.77 1141.51 640.15 1142.21 640C1144.4 639.76 1146.56 639.17 1148.67 638.23C1153.07 635.74 1153.07 629.08 1152.8 622.87C1152.73 621.33 1152.39 613.63 1151.78 599.77L1149.75 553.56L1141.55 367.39C1140.94 353.53 1140.6 345.83 1140.53 344.29C1140.49 342.05 1139.35 340.25 1137.92 340.19C1128.01 339.05 1078.46 333.33 989.27 323.03C964.05 320.12 950.04 318.5 947.23 318.18C943.88 317.79 943.9 326 947.23 326.38C947.23 326.38 996.78 332.1 1095.89 343.54Z" id="a3e6SH3xoB"></path><path d="M1010.75 423.83C1011 423.04 1011.24 422.24 1011.5 421.45C1012.04 419.9 1012.62 418.4 1013.27 416.95C1013.91 415.51 1014.88 414.95 1012.99 417.46C1013.38 416.83 1013.75 416.16 1014.09 415.46C1014.97 413.94 1015.91 412.5 1016.91 411.16C1017.63 410.19 1018.98 409.37 1016.56 411.51C1017.04 411.09 1017.48 410.45 1017.94 409.97C1019.35 408.48 1020.55 407.49 1020.84 407.22C1021.59 406.58 1022.21 406.13 1022.36 406.01C1023.23 405.36 1024.67 405.13 1021.94 406.23C1023.11 405.76 1024.25 404.89 1025.42 404.36C1026.92 403.7 1028.14 403.35 1028.45 403.24C1029.36 402.97 1031.01 403.18 1027.9 403.29C1028.46 403.27 1029.03 403.1 1029.58 403.04C1030.7 402.92 1031.83 402.89 1032.95 402.96C1033.51 403 1034.07 403.08 1034.63 403.14C1036.49 403.31 1031.81 402.32 1034.63 403.17C1035.73 403.5 1036.83 403.93 1037.9 404.46C1038.42 404.81 1038.95 405.11 1039.5 405.34C1039.35 405.24 1038.2 404.46 1038.05 404.37C1038.58 404.73 1039 405.05 1039.11 405.12C1040.14 405.91 1041.15 406.79 1042.11 407.77C1042.6 408.25 1043.06 408.78 1043.53 409.28C1045.02 410.87 1041.54 406.61 1043.65 409.51C1044.72 410.99 1045.5 412.31 1045.71 412.62C1046.3 413.59 1046.74 414.41 1046.86 414.61C1047.48 415.76 1047.96 417.85 1046.65 414.1C1047.85 417.54 1049.35 420.65 1050.47 424.19C1051.43 427.21 1049.6 420.44 1050.33 423.62C1050.52 424.48 1050.73 425.32 1050.92 426.19C1051.48 428.78 1051.79 430.92 1051.88 431.44C1052.15 433.22 1052.28 435.04 1052.53 436.82C1051.85 431.92 1052.35 434.75 1052.42 436.09C1052.51 437.9 1052.52 439.36 1052.53 439.73C1052.55 442 1052.46 443.82 1052.46 444.28C1052.42 445.16 1052.29 446.11 1052.3 446.99C1052.26 442.39 1052.51 444.69 1052.33 446.23C1052.12 448.02 1051.85 449.79 1051.52 451.54C1051.27 452.85 1051.03 453.87 1050.98 454.13C1050.72 455.28 1050.48 456.17 1050.43 456.4C1051.27 453.32 1050.55 455.87 1050.56 455.82C1047.68 464.87 1044.09 473.32 1041.25 482.41C1034.22 505.07 1031.85 530.62 1034.48 555.49C1035.21 559.62 1036.93 563.14 1039.28 565.29C1041.72 567.49 1044.61 568.08 1047.33 566.95C1053.21 563.96 1055.53 555.88 1054.62 546.77C1054.3 543.56 1054.79 549.63 1054.58 546.4C1054.49 545.02 1054.4 543.63 1054.34 542.24C1054.15 538.07 1054.2 534.73 1054.18 533.89C1054.21 530.31 1054.38 527.46 1054.4 526.74C1054.41 525.34 1054.5 523.95 1054.68 522.58C1054.68 522.59 1054.34 525.88 1054.57 523.99C1054.66 523.21 1054.73 522.42 1054.82 521.63C1055.42 516.34 1056.29 511.13 1057.41 506.06C1057.66 504.93 1057.94 503.82 1058.2 502.7C1058.9 499.74 1057.48 505.07 1058.32 502.21C1059.07 499.66 1059.85 497.14 1060.7 494.67C1064.3 484.3 1068.36 474.58 1070.98 463.42C1072.98 454.67 1073.77 445.35 1073.3 436.09C1072.33 416.96 1067.17 397.55 1057.54 385.16C1047.46 371.97 1033.97 367.14 1021.24 372.17C1007.26 377.48 995.86 393.32 990.8 414.48C988.87 422.52 992.94 432.81 998.09 434.66C1004.03 436.78 1008.87 431.81 1010.94 423.2C1011.69 420.07 1009.8 426.81 1010.75 423.83Z" id="aGDeJU2yy"></path><path d="M1056.1 604.98C1056.1 597.45 1052.21 591.35 1047.42 591.35C1042.63 591.35 1038.74 597.45 1038.74 604.98C1038.79 612.48 1042.65 618.53 1047.42 618.61C1052.21 618.61 1056.1 612.51 1056.1 604.98Z" id="b96jLwKhy"></path><path d="M1191.26 682.33C1187.08 702.01 1184.76 712.95 1184.3 715.13C1184.3 715.13 1140.79 794.41 1172.11 805.34C1172.11 805.34 1206.92 720.6 1206.92 720.6C1207.5 718.78 1210.4 709.67 1215.62 693.26L1191.26 682.33Z" id="aRqfDMWMC"></path><path d="M1239.99 285.95C1239.99 285.95 1229.54 283.22 1226.06 348.83C1226.06 348.83 1220.84 529.25 1220.84 529.25C1218.17 540 1204.83 593.76 1180.82 690.53L1231.28 715.13L1255.65 531.98C1247.3 400.76 1242.07 318.76 1239.99 285.95Z" id="a1xZ8j9rnh"></path><path d="M1212.14 1313.8L1259.13 1313.8L1257.39 1261.86L1217.36 1261.86L1217.36 1261.86L1212.14 1313.8Z" id="cTUGfu15n"></path><path d="M1365.29 1390.34L1396.62 1395.81L1396.62 1313.8L1368.77 1319.27L1368.77 1319.27L1365.29 1390.34Z" id="a5IW7pbgE3"></path><path d="M1196.48 944.76L1206.92 1272.8L1260.87 1272.8L1260.87 974.83L1313.08 821.75L1354.85 1013.1L1365.29 1332.94L1424.46 1316.53C1416.11 1129.55 1411.47 1025.68 1410.54 1004.9C1410.54 1004.9 1400.1 589.39 1389.66 583.92C1379.21 578.45 1236.51 583.92 1236.51 583.92C1231.17 632.03 1217.83 752.31 1196.48 944.76Z" id="bxdaVyNVD"></path><path d="M1208.66 1286.46C1194.74 1302.87 1177.33 1332.94 1177.33 1332.94C1177.33 1332.94 1111.2 1390.34 1158.19 1398.54C1205.18 1406.74 1234.77 1360.27 1234.77 1360.27C1235.29 1361.09 1239.46 1367.65 1239.99 1368.47C1239.99 1368.47 1267.83 1360.27 1267.83 1349.34C1267.63 1340.18 1267.05 1331.04 1266.09 1322C1266.09 1322 1262.43 1275.63 1258.17 1285.15C1253.91 1294.67 1229.54 1313.8 1222.58 1297.4C1222.58 1297.4 1222.58 1270.06 1208.66 1286.46Z" id="aG14RAHHK"></path><path d="M1360.07 1371.21C1360.07 1371.21 1347.89 1436.81 1347.89 1436.81C1347.89 1436.81 1325.26 1505.16 1365.29 1499.69C1405.32 1494.22 1403.58 1458.68 1403.58 1450.48C1403.58 1442.28 1401.84 1423.15 1403.58 1414.95C1405.32 1406.74 1398.36 1373.94 1398.36 1373.94C1390.7 1373.39 1367.03 1349.34 1360.07 1371.21Z" id="a5JNGMkzI9"></path><path d="M1329.61 24.89C1302.7 24.89 1280.88 59.16 1280.88 101.43C1280.88 143.7 1302.7 177.97 1329.61 177.97C1356.53 177.97 1378.34 143.7 1378.34 101.43C1378.34 59.16 1356.53 24.89 1329.61 24.89Z" id="diV1H1tJI"></path><path d="M1295.68 236.75L1358.33 228.54L1358.33 138.33L1297.42 138.33L1297.42 138.33L1295.68 236.75Z" id="bFr2tYths"></path><path d="M1361.81 179.34C1361.81 179.34 1332.22 209.41 1323.52 214.88C1323.52 214.88 1295.68 193.01 1295.68 193.01C1295.68 193.01 1290.46 198.48 1290.46 203.94C1290.46 203.94 1286.98 231.28 1286.98 231.28C1284.19 245.68 1270.27 317.66 1245.21 447.24C1247.3 539.09 1248.46 590.11 1248.69 600.32C1248.69 600.32 1375.73 619.46 1389.66 594.85C1389.66 594.85 1382.69 217.61 1382.69 217.61C1378.52 209.96 1365.99 186.99 1361.81 179.34Z" id="a2pCdFPUM0"></path><path d="M1290.46 239.48C1290.46 239.48 1313.08 247.68 1353.11 236.75C1340.58 237.29 1306.12 264.08 1290.46 239.48Z" id="dsMVW65EL"></path><path d="M1394.88 873.68C1394.88 873.68 1388.04 642.28 1363.55 605.79C1339.2 569.46 1299.45 307.55 1335.2 262C1335.36 261.77 1335.53 261.55 1335.7 261.35C1337.97 253.15 1356.07 187.54 1358.33 179.34C1358.33 179.34 1361.81 171.14 1368.77 182.07C1374.4 191.55 1379.63 201.6 1384.43 212.14C1384.5 212.18 1384.83 212.39 1385.43 212.77L1433.16 242.21C1421.68 322.58 1415.3 367.23 1414.02 376.16C1414.02 376.16 1495.82 810.81 1476.67 829.95C1457.53 849.08 1411.24 864.94 1394.88 873.68Z" id="b3vn4D39n0"></path><path d="M1385.43 212.77L1372.25 288.69C1350.02 272.68 1337.67 263.78 1335.2 262C1335.36 261.77 1335.53 261.55 1335.7 261.35C1337.97 253.15 1356.07 187.54 1358.33 179.34C1358.33 179.34 1361.81 171.14 1368.77 182.07C1374.4 191.55 1379.63 201.6 1384.43 212.14C1384.57 212.23 1384.9 212.44 1385.43 212.77Z" id="a4arMnOdgu"></path><path d="M1289.59 284.58L1289.31 288.82C1265.46 645.48 1252.21 843.62 1249.56 883.25C1249.56 883.25 1214.75 864.12 1202.57 842.25C1202.57 842.25 1230.41 577.08 1230.41 577.08C1230.76 546.47 1233.55 301.53 1233.9 270.92C1233.9 270.92 1264.77 236.77 1277.39 218.02C1280.34 213.65 1282.29 210.12 1282.62 208.04C1284.36 197.11 1294.81 191.64 1294.81 191.64C1294.11 204.03 1292.37 235.01 1289.59 284.58Z" id="b25UoQIx5f"></path><path d="M1289.59 284.58L1289.31 288.82L1264.35 283.22C1272.17 244.1 1276.52 222.37 1277.39 218.02C1280.34 213.65 1282.29 210.12 1282.62 208.04C1284.36 197.11 1294.81 191.64 1294.81 191.64C1294.11 204.03 1292.37 235.01 1289.59 284.58Z" id="b6c74tVT0L"></path><path d="M1387.91 652.26C1376.43 668.66 1370.05 677.77 1368.77 679.6C1368.77 679.6 1377.47 737 1387.91 739.74C1387.91 739.74 1394.88 723.33 1396.62 709.67C1398.36 696 1414.02 682.33 1414.02 682.33C1410.54 678.32 1401.84 668.3 1387.91 652.26Z" id="c29DYS29Vu"></path><path d="M1410.54 236.75C1424.11 240.03 1431.66 241.85 1433.16 242.21C1433.16 242.21 1508 441.77 1499.3 512.84C1499.3 512.84 1420.98 706.93 1420.98 706.93C1418.08 703.29 1403.58 685.06 1377.47 652.26L1441.87 515.58L1408.8 351.56L1410.54 236.75Z" id="d1WR2vmeW"></path><path d="M1291.22 27.18C1292.47 27.18 1302.5 27.18 1303.75 27.18C1303.75 27.18 1318.37 -6.57 1337.17 5.71C1337.17 5.71 1387.29 39.46 1385.2 73.21C1385.2 73.21 1376.6 128.77 1376.6 128.77C1376.6 128.77 1373.12 128.77 1365.36 110.42C1355 85.9 1378.94 93.54 1347.61 84.34C1316.28 75.13 1297.48 62.86 1293.31 75.13C1289.13 87.41 1280.77 110.03 1280.77 110.03C1282.86 93.46 1280.77 42.53 1291.22 27.18Z" id="d3cJiBwVmx"></path><path d="M1303.54 31.77C1303.54 31.77 1305.21 12.04 1312.08 7.79C1312.08 7.79 1303.54 31.77 1303.54 31.77Z" id="c88NF0vWH"></path><path d="M1303.51 35.82C1303.51 35.82 1300.03 16.69 1305.25 8.49C1305.25 8.49 1303.51 35.82 1303.51 35.82Z" id="fuo0dzsVm"></path></defs><g><g><g><use xlink:href="#c5ZmW936c" opacity="1" fill="#563d52" fill-opacity="1"></use><g><use xlink:href="#c5ZmW936c" opacity="1" fill-opacity="0" stroke="#000000" stroke-width="1" stroke-opacity="0"></use></g></g><g><use xlink:href="#acMciL40k" opacity="1" fill="#000000" fill-opacity="1"></use><g><use xlink:href="#acMciL40k" opacity="1" fill-opacity="0" stroke="#000000" stroke-width="1" stroke-opacity="0"></use></g></g><g><use xlink:href="#iHICSP8nK" opacity="1" fill="#cde1ce" fill-opacity="1"></use><g><use xlink:href="#iHICSP8nK" opacity="1" fill-opacity="0" stroke="#000000" stroke-width="1" stroke-opacity="0"></use></g></g><g><use xlink:href="#a5YZL49vpH" opacity="1" fill="#6c63ff" fill-opacity="1"></use><g><use xlink:href="#a5YZL49vpH" opacity="1" fill-opacity="0" stroke="#000000" stroke-width="1" stroke-opacity="0"></use></g></g><g><use xlink:href="#a1aqJZ7Bln" opacity="1" fill="#f2f2f2" fill-opacity="1"></use><g><use xlink:href="#a1aqJZ7Bln" opacity="1" fill-opacity="0" stroke="#000000" stroke-width="1" stroke-opacity="0"></use></g></g><g><use xlink:href="#acLLzk46W" opacity="1" fill="#3f3d56" fill-opacity="1"></use><g><use xlink:href="#acLLzk46W" opacity="1" fill-opacity="0" stroke="#000000" stroke-width="1" stroke-opacity="0"></use></g></g><g><use xlink:href="#bD9WqGYws" opacity="1" fill="#f2f2f2" fill-opacity="1"></use><g><use xlink:href="#bD9WqGYws" opacity="1" fill-opacity="0" stroke="#000000" stroke-width="1" stroke-opacity="0"></use></g></g><g><use xlink:href="#a3IujZMRt1" opacity="1" fill="#3f3d56" fill-opacity="1"></use><g><use xlink:href="#a3IujZMRt1" opacity="1" fill-opacity="0" stroke="#000000" stroke-width="1" stroke-opacity="0"></use></g></g><g><use xlink:href="#ayjuJacmj" opacity="1" fill="#cde1d0" fill-opacity="1"></use><g><use xlink:href="#ayjuJacmj" opacity="1" fill-opacity="0" stroke="#000000" stroke-width="1" stroke-opacity="0"></use></g></g><g><use xlink:href="#e1jPuPTcAA" opacity="1" fill="#6c63ff" fill-opacity="1"></use><g><use xlink:href="#e1jPuPTcAA" opacity="1" fill-opacity="0" stroke="#000000" stroke-width="1" stroke-opacity="0"></use></g></g><g><use xlink:href="#a2WH9ghn1" opacity="1" fill="#f2f2f2" fill-opacity="1"></use><g><use xlink:href="#a2WH9ghn1" opacity="1" fill-opacity="0" stroke="#000000" stroke-width="1" stroke-opacity="0"></use></g></g><g><use xlink:href="#c6eMS204V" opacity="1" fill="#f2f2f2" fill-opacity="1"></use><g><use xlink:href="#c6eMS204V" opacity="1" fill-opacity="0" stroke="#000000" stroke-width="1" stroke-opacity="0"></use></g></g><g><use xlink:href="#biGtvZf7N" opacity="1" fill="#3f3d56" fill-opacity="1"></use><g><use xlink:href="#biGtvZf7N" opacity="1" fill-opacity="0" stroke="#000000" stroke-width="1" stroke-opacity="0"></use></g></g><g><use xlink:href="#ail60rvKG" opacity="1" fill="#f2f2f2" fill-opacity="1"></use><g><use xlink:href="#ail60rvKG" opacity="1" fill-opacity="0" stroke="#000000" stroke-width="1" stroke-opacity="0"></use></g></g><g><use xlink:href="#b14IJb5Zo2" opacity="1" fill="#ff6584" fill-opacity="1"></use><g><use xlink:href="#b14IJb5Zo2" opacity="1" fill-opacity="0" stroke="#000000" stroke-width="1" stroke-opacity="0"></use></g></g><g><use xlink:href="#aX6YUQD4N" opacity="1" fill="#3f3d56" fill-opacity="1"></use><g><use xlink:href="#aX6YUQD4N" opacity="1" fill-opacity="0" stroke="#000000" stroke-width="1" stroke-opacity="0"></use></g></g><g><use xlink:href="#c5RCHv96y" opacity="1" fill="#dae1cd" fill-opacity="1"></use><g><use xlink:href="#c5RCHv96y" opacity="1" fill-opacity="0" stroke="#000000" stroke-width="1" stroke-opacity="0"></use></g></g><g><use xlink:href="#a61zuFxYK" opacity="1" fill="#6c63ff" fill-opacity="1"></use><g><use xlink:href="#a61zuFxYK" opacity="1" fill-opacity="0" stroke="#000000" stroke-width="1" stroke-opacity="0"></use></g></g><g><use xlink:href="#c3sgrjBOKU" opacity="1" fill="#f2f2f2" fill-opacity="1"></use><g><use xlink:href="#c3sgrjBOKU" opacity="1" fill-opacity="0" stroke="#000000" stroke-width="1" stroke-opacity="0"></use></g></g><g><use xlink:href="#b2YD63mtSg" opacity="1" fill="#3f3d56" fill-opacity="1"></use><g><use xlink:href="#b2YD63mtSg" opacity="1" fill-opacity="0" stroke="#000000" stroke-width="1" stroke-opacity="0"></use></g></g><g><use xlink:href="#b2jyOskPke" opacity="1" fill="#f2f2f2" fill-opacity="1"></use><g><use xlink:href="#b2jyOskPke" opacity="1" fill-opacity="0" stroke="#000000" stroke-width="1" stroke-opacity="0"></use></g></g><g><use xlink:href="#iJwN2W9Mj" opacity="1" fill="#f2f2f2" fill-opacity="1"></use><g><use xlink:href="#iJwN2W9Mj" opacity="1" fill-opacity="0" stroke="#000000" stroke-width="1" stroke-opacity="0"></use></g></g><g><use xlink:href="#g1fOQQ3WBt" opacity="1" fill="#3f3d56" fill-opacity="1"></use><g><use xlink:href="#g1fOQQ3WBt" opacity="1" fill-opacity="0" stroke="#000000" stroke-width="1" stroke-opacity="0"></use></g></g><g><use xlink:href="#a3O83s5pU9" opacity="1" fill="#d7e2c9" fill-opacity="1"></use><g><use xlink:href="#a3O83s5pU9" opacity="1" fill-opacity="0" stroke="#000000" stroke-width="1" stroke-opacity="0"></use></g></g><g><use xlink:href="#d2CY9NB8yy" opacity="1" fill="#6c63ff" fill-opacity="1"></use><g><use xlink:href="#d2CY9NB8yy" opacity="1" fill-opacity="0" stroke="#000000" stroke-width="1" stroke-opacity="0"></use></g></g><g><use xlink:href="#abFoCUK3B" opacity="1" fill="#3f3d56" fill-opacity="1"></use><g><use xlink:href="#abFoCUK3B" opacity="1" fill-opacity="0" stroke="#000000" stroke-width="1" stroke-opacity="0"></use></g></g><g><use xlink:href="#d1fmBhyEkJ" opacity="1" fill="#3f3d56" fill-opacity="1"></use><g><use xlink:href="#d1fmBhyEkJ" opacity="1" fill-opacity="0" stroke="#000000" stroke-width="1" stroke-opacity="0"></use></g></g><g><use xlink:href="#g2i0CX7Jh" opacity="1" fill="#3f3d56" fill-opacity="1"></use><g><use xlink:href="#g2i0CX7Jh" opacity="1" fill-opacity="0" stroke="#000000" stroke-width="1" stroke-opacity="0"></use></g></g><g><use xlink:href="#a10ZVMZLGs" opacity="1" fill="#3f3d56" fill-opacity="1"></use><g><use xlink:href="#a10ZVMZLGs" opacity="1" fill-opacity="0" stroke="#000000" stroke-width="1" stroke-opacity="0"></use></g></g><g><use xlink:href="#bbnd0OQYG" opacity="1" fill="#3f3d56" fill-opacity="1"></use><g><use xlink:href="#bbnd0OQYG" opacity="1" fill-opacity="0" stroke="#000000" stroke-width="1" stroke-opacity="0"></use></g></g><g><use xlink:href="#damfG3S2f" opacity="1" fill="#3f3d56" fill-opacity="1"></use><g><use xlink:href="#damfG3S2f" opacity="1" fill-opacity="0" stroke="#000000" stroke-width="1" stroke-opacity="0"></use></g></g><g><use xlink:href="#aEDtovlNL" opacity="1" fill="#f2f2f2" fill-opacity="1"></use><g><use xlink:href="#aEDtovlNL" opacity="1" fill-opacity="0" stroke="#000000" stroke-width="1" stroke-opacity="0"></use></g></g><g><use xlink:href="#b5h2ksoX0" opacity="1" fill="#f2f2f2" fill-opacity="1"></use><g><use xlink:href="#b5h2ksoX0" opacity="1" fill-opacity="0" stroke="#000000" stroke-width="1" stroke-opacity="0"></use></g></g><g><use xlink:href="#a1xZmfCKFd" opacity="1" fill="#3f3d56" fill-opacity="1"></use><g><use xlink:href="#a1xZmfCKFd" opacity="1" fill-opacity="0" stroke="#000000" stroke-width="1" stroke-opacity="0"></use></g></g><g><use xlink:href="#a3e6SH3xoB" opacity="1" fill="#d0cde1" fill-opacity="1"></use><g><use xlink:href="#a3e6SH3xoB" opacity="1" fill-opacity="0" stroke="#000000" stroke-width="1" stroke-opacity="0"></use></g></g><g><use xlink:href="#aGDeJU2yy" opacity="1" fill="#d0cde1" fill-opacity="1"></use><g><use xlink:href="#aGDeJU2yy" opacity="1" fill-opacity="0" stroke="#000000" stroke-width="1" stroke-opacity="0"></use></g></g><g><use xlink:href="#b96jLwKhy" opacity="1" fill="#d0cde1" fill-opacity="1"></use><g><use xlink:href="#b96jLwKhy" opacity="1" fill-opacity="0" stroke="#000000" stroke-width="1" stroke-opacity="0"></use></g></g><g><use xlink:href="#aRqfDMWMC" opacity="1" fill="#ffb8b8" fill-opacity="1"></use><g><use xlink:href="#aRqfDMWMC" opacity="1" fill-opacity="0" stroke="#000000" stroke-width="1" stroke-opacity="0"></use></g></g><g><use xlink:href="#a1xZ8j9rnh" opacity="1" fill="#5f8957" fill-opacity="1"></use><g><use xlink:href="#a1xZ8j9rnh" opacity="1" fill-opacity="0" stroke="#000000" stroke-width="1" stroke-opacity="0"></use></g></g><g><use xlink:href="#cTUGfu15n" opacity="1" fill="#ffb8b8" fill-opacity="1"></use><g><use xlink:href="#cTUGfu15n" opacity="1" fill-opacity="0" stroke="#000000" stroke-width="1" stroke-opacity="0"></use></g></g><g><use xlink:href="#a5IW7pbgE3" opacity="1" fill="#ffb8b8" fill-opacity="1"></use><g><use xlink:href="#a5IW7pbgE3" opacity="1" fill-opacity="0" stroke="#000000" stroke-width="1" stroke-opacity="0"></use></g></g><g><use xlink:href="#bxdaVyNVD" opacity="1" fill="#d91111" fill-opacity="1"></use><g><use xlink:href="#bxdaVyNVD" opacity="1" fill-opacity="0" stroke="#000000" stroke-width="1" stroke-opacity="0"></use></g></g><g><use xlink:href="#aG14RAHHK" opacity="1" fill="#32549c" fill-opacity="1"></use><g><use xlink:href="#aG14RAHHK" opacity="1" fill-opacity="0" stroke="#000000" stroke-width="1" stroke-opacity="0"></use></g></g><g><use xlink:href="#a5JNGMkzI9" opacity="1" fill="#2f27b1" fill-opacity="1"></use><g><use xlink:href="#a5JNGMkzI9" opacity="1" fill-opacity="0" stroke="#000000" stroke-width="1" stroke-opacity="0"></use></g></g><g><use xlink:href="#diV1H1tJI" opacity="1" fill="#ffb8b8" fill-opacity="1"></use><g><use xlink:href="#diV1H1tJI" opacity="1" fill-opacity="0" stroke="#000000" stroke-width="1" stroke-opacity="0"></use></g></g><g><use xlink:href="#bFr2tYths" opacity="1" fill="#ffb8b8" fill-opacity="1"></use><g><use xlink:href="#bFr2tYths" opacity="1" fill-opacity="0" stroke="#000000" stroke-width="1" stroke-opacity="0"></use></g></g><g><use xlink:href="#a2pCdFPUM0" opacity="1" fill="#d0cde1" fill-opacity="1"></use><g><use xlink:href="#a2pCdFPUM0" opacity="1" fill-opacity="0" stroke="#000000" stroke-width="1" stroke-opacity="0"></use></g></g><g><use xlink:href="#dsMVW65EL" opacity="1" fill="#000000" fill-opacity="1"></use><g><use xlink:href="#dsMVW65EL" opacity="1" fill-opacity="0" stroke="#000000" stroke-width="1" stroke-opacity="0"></use></g></g><g><use xlink:href="#b3vn4D39n0" opacity="1" fill="#5d8957" fill-opacity="1"></use><g><use xlink:href="#b3vn4D39n0" opacity="1" fill-opacity="0" stroke="#000000" stroke-width="1" stroke-opacity="0"></use></g></g><g><use xlink:href="#a4arMnOdgu" opacity="1" fill="#000000" fill-opacity="1"></use><g><use xlink:href="#a4arMnOdgu" opacity="1" fill-opacity="0" stroke="#000000" stroke-width="1" stroke-opacity="0"></use></g></g><g><use xlink:href="#b25UoQIx5f" opacity="1" fill="#608957" fill-opacity="1"></use><g><use xlink:href="#b25UoQIx5f" opacity="1" fill-opacity="0" stroke="#000000" stroke-width="1" stroke-opacity="0"></use></g></g><g><use xlink:href="#b6c74tVT0L" opacity="1" fill="#000000" fill-opacity="1"></use><g><use xlink:href="#b6c74tVT0L" opacity="1" fill-opacity="0" stroke="#000000" stroke-width="1" stroke-opacity="0"></use></g></g><g><use xlink:href="#c29DYS29Vu" opacity="1" fill="#ffb8b8" fill-opacity="1"></use><g><use xlink:href="#c29DYS29Vu" opacity="1" fill-opacity="0" stroke="#000000" stroke-width="1" stroke-opacity="0"></use></g></g><g><use xlink:href="#d1WR2vmeW" opacity="1" fill="#648957" fill-opacity="1"></use><g><use xlink:href="#d1WR2vmeW" opacity="1" fill-opacity="0" stroke="#000000" stroke-width="1" stroke-opacity="0"></use></g></g><g><use xlink:href="#d3cJiBwVmx" opacity="1" fill="#2f2e41" fill-opacity="1"></use><g><use xlink:href="#d3cJiBwVmx" opacity="1" fill-opacity="0" stroke="#000000" stroke-width="1" stroke-opacity="0"></use></g></g><g><use xlink:href="#c88NF0vWH" opacity="1" fill="#2f2e41" fill-opacity="1"></use><g><use xlink:href="#c88NF0vWH" opacity="1" fill-opacity="0" stroke="#000000" stroke-width="1" stroke-opacity="0"></use></g></g><g><use xlink:href="#fuo0dzsVm" opacity="1" fill="#2f2e41" fill-opacity="1"></use><g><use xlink:href="#fuo0dzsVm" opacity="1" fill-opacity="0" stroke="#000000" stroke-width="1" stroke-opacity="0"></use></g></g></g></g></svg>